<svg xmlns="http://www.w3.org/2000/svg" xmlns:xlink="http://www.w3.org/1999/xlink" version="1.1" x="0px" y="0px" viewBox="0 0 100 125" enable-background="new 0 0 100 100" xml:space="preserve"><g><path d="M93.653,11.88H76.988c-0.65,0-1.198,0.416-1.406,0.994h-5.713V5c0-0.829-0.671-1.5-1.5-1.5H31.631   c-0.829,0-1.5,0.671-1.5,1.5v7.874h-5.713c-0.208-0.578-0.756-0.994-1.406-0.994H6.347c-0.829,0-1.5,0.671-1.5,1.5v6.659   c0,0.829,0.671,1.5,1.5,1.5h16.665c0.65,0,1.198-0.416,1.406-0.994h5.713V35.47c0,0.037,0.008,0.072,0.011,0.109   c0.003,0.041,0.006,0.08,0.012,0.121c0.013,0.084,0.034,0.164,0.06,0.242c0.007,0.021,0.008,0.042,0.016,0.063l4,10.482   c0.222,0.582,0.779,0.965,1.401,0.965H41.3v18.646c0,0.829,0.671,1.5,1.5,1.5h2.492v22.908c0,0.312,0.098,0.617,0.279,0.872   l3.208,4.493C49.061,96.266,49.516,96.5,50,96.5s0.939-0.234,1.221-0.628l3.208-4.493c0.182-0.254,0.279-0.559,0.279-0.872V67.599   H57.2c0.829,0,1.5-0.671,1.5-1.5V47.453h5.669c0.622,0,1.18-0.384,1.401-0.965l4-10.482c0.008-0.02,0.009-0.042,0.016-0.063   c0.026-0.078,0.047-0.159,0.06-0.242c0.006-0.04,0.009-0.08,0.012-0.121c0.003-0.037,0.011-0.072,0.011-0.109V20.545h5.713   c0.208,0.578,0.756,0.994,1.406,0.994h16.665c0.829,0,1.5-0.671,1.5-1.5V13.38C95.153,12.552,94.482,11.88,93.653,11.88z    M33.131,6.5h33.738v7.874v4.671V33.97H33.131V19.045v-4.671V6.5z M7.847,14.88h13.665v3.659H7.847V14.88z M24.512,17.545v-1.671   h5.619v1.671H24.512z M51.708,90.026L50,92.418l-1.708-2.392V67.599h3.416V90.026z M55.7,64.599h-2.492h-6.416H44.3V47.453H55.7   V64.599z M63.336,44.453H57.2H42.8h-6.136l-2.855-7.482h32.383L63.336,44.453z M69.869,15.874h5.619v1.671h-5.619V15.874z    M92.153,18.539H78.488V14.88h13.665V18.539z"/></g><text x="0" y="115" fill="#000000" font-size="5px" font-weight="bold" font-family="'Helvetica Neue', Helvetica, Arial-Unicode, Arial, Sans-serif">Created by fauzan akbar</text><text x="0" y="120" fill="#000000" font-size="5px" font-weight="bold" font-family="'Helvetica Neue', Helvetica, Arial-Unicode, Arial, Sans-serif">from the Noun Project</text></svg>