<svg xmlns="http://www.w3.org/2000/svg" xmlns:xlink="http://www.w3.org/1999/xlink" version="1.1" x="0px" y="0px" viewBox="0 0 100 125" enable-background="new 0 0 100 100" xml:space="preserve"><g><path d="M82.354,3.939C82.072,3.658,81.69,3.5,81.293,3.5s-0.779,0.158-1.061,0.439l-3.814,3.814l-5.773,5.773   c-2.575,2.576-2.575,6.768,0,9.344l0.405,0.405L42.433,51.892c-0.205-0.101-0.429-0.161-0.661-0.161   c-0.397,0-0.779,0.158-1.061,0.439l-6.494,6.494l-6.319-6.319c-1.67-1.672-4.39-1.67-6.06,0L9.241,64.943   C5.016,69.169,2.966,75,3.617,80.941l0.687,6.256c0.495,4.509,3.989,8.005,8.499,8.5l6.257,0.687   c0.725,0.08,1.448,0.119,2.168,0.119c5.173,0,10.119-2.033,13.829-5.743l12.598-12.597c0.81-0.81,1.255-1.886,1.255-3.03   s-0.445-2.221-1.255-3.03l-6.318-6.318l6.493-6.494c0.466-0.465,0.545-1.154,0.271-1.714L76.725,28.95l0.405,0.405   c1.248,1.248,2.906,1.936,4.672,1.936c1.765,0,3.424-0.688,4.671-1.936l5.773-5.773l3.814-3.814   c0.281-0.281,0.439-0.663,0.439-1.061s-0.158-0.779-0.439-1.061L82.354,3.939z M39.215,67.904l6.318,6.318   c0.243,0.243,0.376,0.566,0.376,0.909s-0.133,0.666-0.376,0.909L32.936,88.638c-3.579,3.58-8.524,5.315-13.549,4.763l-6.256-0.687   c-3.102-0.34-5.505-2.744-5.845-5.845L6.6,80.614c-0.552-5.032,1.184-9.97,4.763-13.549L23.96,54.467   c0.251-0.25,0.58-0.375,0.909-0.375c0.328,0,0.657,0.125,0.908,0.375l6.318,6.318l-7.031,7.032l-0.029,0.029   c-1.946,1.946-1.946,5.113,0.009,7.069l0.054,0.053c0.942,0.94,2.194,1.458,3.526,1.458c1.333,0,2.587-0.519,3.53-1.462   l4.874-4.874L39.215,67.904z M35.26,67.616l-5.198,5.198c-0.287,0.287-0.641,0.467-1.012,0.546   c-0.013,0.003-0.026,0.009-0.039,0.011c-0.026,0.005-0.052,0.003-0.077,0.007c-0.226,0.033-0.456,0.034-0.681-0.006   c-0.005-0.001-0.009,0-0.014-0.001c-0.019-0.004-0.037-0.012-0.057-0.016c-0.364-0.081-0.711-0.257-0.994-0.54l-0.005-0.005   c-0.791-0.793-0.79-2.082,0.002-2.874l14.586-14.585l2.876,2.876L35.26,67.616z M46.047,55.385l-1.433-1.433l28.557-28.556   l1.433,1.433L46.047,55.385z M84.352,27.234c-1.364,1.363-3.738,1.362-5.101,0l-3.243-3.242l-1.777-1.777   c-0.001-0.001-0.001-0.001-0.002-0.002l-1.464-1.464c-1.406-1.406-1.406-3.695,0-5.102l4.713-4.712l11.586,11.586L84.352,27.234z    M91.186,20.4L79.6,8.814l1.693-1.693l11.586,11.586L91.186,20.4z"/></g><text x="0" y="115" fill="#000000" font-size="5px" font-weight="bold" font-family="'Helvetica Neue', Helvetica, Arial-Unicode, Arial, Sans-serif">Created by fauzan akbar</text><text x="0" y="120" fill="#000000" font-size="5px" font-weight="bold" font-family="'Helvetica Neue', Helvetica, Arial-Unicode, Arial, Sans-serif">from the Noun Project</text></svg>