<svg xmlns="http://www.w3.org/2000/svg" xmlns:xlink="http://www.w3.org/1999/xlink" version="1.1" x="0px" y="0px" viewBox="0 0 100 125" enable-background="new 0 0 100 100" xml:space="preserve"><g><path d="M90.884,56.4H64.882v-4.2c0-0.829-0.671-1.5-1.5-1.5h-6.72l-4.296-20.288c-1.744-8.242-6.979-15.295-14.363-19.352   L25.263,4.059c-1.544-0.848-3.364-0.68-4.727,0.254c-0.622,0.297-1.143,0.659-1.572,1.119l-2.683,2.882   c-0.781,0.838-1.271,1.929-1.38,3.07l-3.805,39.722l-3.803,3.303c-3.439,2.987-4.606,7.833-2.904,12.058   c1.51,3.749,4.949,6.297,8.975,6.65l11.942,1.049c0.044,0.004,0.088,0.006,0.131,0.006c0.464,0,0.906-0.215,1.191-0.588   c0.312-0.408,0.394-0.946,0.217-1.428l-7.11-19.399l8.353-34.263l0.863,0.765c4.566,4.048,7.567,9.603,8.45,15.641l2.31,15.8   h-0.631c-0.648,0-1.224,0.417-1.425,1.033l-3.99,12.18c-0.049,0.15-0.075,0.308-0.075,0.467v12.179c0,0.829,0.671,1.5,1.5,1.5   h11.033v2.355H29.897c-4.435,0-8.043,3.608-8.043,8.043s3.608,8.043,8.043,8.043h54.729c4.435,0,8.043-3.608,8.043-8.043   s-3.608-8.043-8.043-8.043h-7.718v-2.355h13.976c3.033,0,5.5-2.467,5.5-5.5V61.9C96.384,58.867,93.917,56.4,90.884,56.4z    M54.928,75.059l6.954-5.946v5.946H54.928z M61.882,57.9v7.266l-9.516,8.136V53.7h3.081h6.435V57.9z M16.714,52.49   c-0.07,0.289-0.053,0.592,0.049,0.872l6.454,17.61l-9.59-0.843c-2.896-0.254-5.369-2.087-6.455-4.783   c-1.224-3.039-0.385-6.524,2.088-8.672l4.255-3.696c0.291-0.252,0.473-0.606,0.51-0.989l3.862-40.319   c0.046-0.487,0.256-0.953,0.59-1.311l0.472-0.508c0.021,0.046,0.055,0.087,0.077,0.132c0.089,0.182,0.192,0.357,0.306,0.528   c0.051,0.076,0.096,0.153,0.152,0.226c0.179,0.235,0.376,0.461,0.605,0.664l5.461,4.842L16.714,52.49z M40.372,34.465   c-0.985-6.737-4.334-12.935-9.429-17.452l-2.724-2.415c-0.001-0.001-0.001-0.001-0.002-0.002L22.08,9.155   c-0.134-0.119-0.242-0.255-0.325-0.404c-0.247-0.446-0.256-0.995,0.003-1.466c0.1-0.182,0.24-0.341,0.415-0.473   c0.002-0.001,0.003-0.004,0.005-0.005c0.463-0.346,1.103-0.415,1.641-0.119l12.741,7.001c6.617,3.636,11.309,9.958,12.873,17.344   L53.596,50.7h-2.73h-8.121L40.372,34.465z M36.592,64.619L40.169,53.7h1.28h7.917v21.359h-1.741H36.592V64.619z M78.37,83.414   c-1.115,1.381-1.786,3.134-1.786,5.043s0.671,3.662,1.786,5.043H63.518c1.115-1.381,1.786-3.134,1.786-5.043   s-0.671-3.662-1.786-5.043h11.89H78.37z M62.305,88.457c0,2.781-2.262,5.043-5.043,5.043s-5.043-2.262-5.043-5.043   s2.262-5.043,5.043-5.043S62.305,85.676,62.305,88.457z M51.005,93.5H36.154c1.115-1.381,1.786-3.134,1.786-5.043   s-0.671-3.662-1.786-5.043h11.471h3.38c-1.115,1.381-1.786,3.134-1.786,5.043S49.89,92.119,51.005,93.5z M24.854,88.457   c0-2.781,2.262-5.043,5.043-5.043s5.043,2.262,5.043,5.043S32.678,93.5,29.897,93.5S24.854,91.238,24.854,88.457z M89.669,88.457   c0,2.781-2.262,5.043-5.043,5.043s-5.043-2.262-5.043-5.043s2.262-5.043,5.043-5.043S89.669,85.676,89.669,88.457z M73.908,80.414   H49.125v-2.355h14.257h10.526V80.414z M93.384,72.559c0,1.378-1.122,2.5-2.5,2.5H75.408H64.882v-9.202V59.4h26.002   c1.378,0,2.5,1.122,2.5,2.5V72.559z"/><path d="M85.157,62.843H72.988c-0.829,0-1.5,0.671-1.5,1.5s0.671,1.5,1.5,1.5h12.169c0.829,0,1.5-0.671,1.5-1.5   S85.986,62.843,85.157,62.843z"/><path d="M85.157,67.64H72.988c-0.829,0-1.5,0.671-1.5,1.5s0.671,1.5,1.5,1.5h12.169c0.829,0,1.5-0.671,1.5-1.5   S85.986,67.64,85.157,67.64z"/></g><text x="0" y="115" fill="#000000" font-size="5px" font-weight="bold" font-family="'Helvetica Neue', Helvetica, Arial-Unicode, Arial, Sans-serif">Created by fauzan akbar</text><text x="0" y="120" fill="#000000" font-size="5px" font-weight="bold" font-family="'Helvetica Neue', Helvetica, Arial-Unicode, Arial, Sans-serif">from the Noun Project</text></svg>