<svg xmlns="http://www.w3.org/2000/svg" data-name="Layer 1" viewBox="0 0 512 640" x="0px" y="0px"><path d="M443.91,190.29c-12.5-16.28-31.93-33.4-54.71-48.2s-46.33-25.58-66.29-30.38c-22.12-5.31-37.28-2.77-43.86,7.36l-17.84,27.46c-14.39,22.16,23.18,63.56,65.83,91.26,29.15,18.93,63.17,33.09,86.39,33.09,10.76,0,19.2-3.05,23.76-10.06L455,233.35C461.6,223.23,457.76,208.34,443.91,190.29ZM302.82,120a76.79,76.79,0,0,1,17.53,2.39c18.78,4.51,41.11,14.78,62.87,28.92s40.22,30.35,52,45.67c10.3,13.42,14.27,24.79,10.62,30.4S430.18,234,413.73,230c-18.78-4.52-41.11-14.78-62.87-28.92s-40.23-30.35-52-45.67C288.58,142,284.61,130.66,288.26,125,290.43,121.7,295.56,120,302.82,120Zm-32.4,32.52L278,140.9a66.77,66.77,0,0,0,7.27,14.25L274,172.39C269.11,163.71,267.72,156.66,270.42,152.51Zm10.24,29.8,11.49-17.69c9.05,11.23,21.29,22.77,35.55,33.62l-11.84,18.23C300.67,204.8,288.69,192.87,280.66,182.31Zm44,40.66,11.86-18.25c2.71,1.9,5.49,3.77,8.31,5.6a269.58,269.58,0,0,0,34.73,19.18l-11.76,18.12a253.07,253.07,0,0,1-34.83-19Q328.75,225.82,324.71,223ZM428,254.84c-5,7.62-24.43,6.64-49.81-3l11.7-18a160.32,160.32,0,0,0,21.3,6.86,87.58,87.58,0,0,0,20.09,2.7c1.48,0,2.9-.06,4.26-.17Z"/><path d="M205.27,191.71c7.3-22.38,11.07-44.51,10.62-62.31-.63-25.23-9.28-33.3-16.42-35.63L172.61,85h0c-22.15-7.21-48.68,33.62-62.4,75.7-7.29,22.38-11.06,44.5-10.61,62.3.63,25.24,9.27,33.31,16.41,35.64h0l26.86,8.76a16.72,16.72,0,0,0,5.26.84C169.09,268.25,192.63,230.51,205.27,191.71ZM182.2,219.33,165.83,214a233.21,233.21,0,0,0,12.56-31.05c.82-2.5,1.59-5,2.33-7.55l16.45,5.36c-.73,2.51-1.5,5-2.33,7.56A221.85,221.85,0,0,1,182.2,219.33Zm22.72-89.71v.06c.3,11.8-1.44,25.74-4.95,40.44l-16.44-5.36c3.36-14,5.33-28,5.44-40.34Zm-1.22-11.94-15.27-5a60.48,60.48,0,0,0-2.37-11.77l10,3.26C199.55,105.33,202.24,110.23,203.7,117.68Zm-83.08,46.43c14.53-44.57,36-69,46.71-69a5.85,5.85,0,0,1,1.86.28h0c9.89,3.22,14.2,36.77-1.23,84.1-6.91,21.22-16.29,40.15-26.4,53.31-8.57,11.15-17.07,17-22.17,15.37s-8.49-11.43-8.85-25.48C110.13,206.15,113.71,185.33,120.62,164.11ZM146.27,257l-9.93-3.24a70.73,70.73,0,0,0,13.92-14.21,139.26,139.26,0,0,0,10.33-15.71l16.26,5.3C164.89,249.33,152.72,259.09,146.27,257Z"/><path d="M337,332.9l-29.81-25.58c-20.3-17.41-67.16,5-106.67,51.1-18.32,21.36-32.16,44.46-39,65-7.33,22.17-5.66,39.27,4.7,48.16L196,497.19c4.65,4,10.69,5.89,17.73,5.89,23.65,0,58.48-21.48,88.94-57C342.22,400,357.27,350.31,337,332.9Zm-2.54,31.61L314.1,347.07a69.11,69.11,0,0,0,2.06-17.58l13.67,11.73C334.61,345.32,336.16,353.58,334.43,364.51Zm-10.72,31-21.25-18.22a153.53,153.53,0,0,0,8.21-18.73l20.86,17.89A132.67,132.67,0,0,1,323.71,395.54Zm-16,26.47L286.21,403.6q6-8.3,10.81-16.49l21.36,18.32C315.25,410.83,311.68,416.38,307.66,422ZM171.94,426.9c6.37-19.25,19.46-41,36.88-61.34,30-34.94,62.12-53.24,80.44-53.24,4.49,0,8.16,1.1,10.76,3.33,13.18,11.31,1.86,54.23-35.46,97.73-17.41,20.3-36.95,36.56-55,45.78-16.34,8.33-29.52,9.84-36.18,4.13S166.19,444.32,171.94,426.9Zm92.95,40.88-21.34-18.3c4.93-4.07,9.83-8.49,14.64-13.22l21.45,18.41C274.69,459.49,269.75,463.87,264.89,467.78Zm-26.61,17.4L217.5,467.36a154.48,154.48,0,0,0,17.21-11l21.22,18.2A134.12,134.12,0,0,1,238.28,485.18Zm-35.11,3.69-13.49-11.58a67.86,67.86,0,0,0,17-4.75l20.2,17.33C216.35,493.24,208,493,203.17,488.87Zm84.17-42.06-21.48-18.42q3.57-3.84,7-7.87t6.7-8.14l21.48,18.43q-3.19,4.06-6.7,8.14T287.34,446.81Z"/><path d="M376.63,65.45c0,.1,0,.2,0,.3l0,.22c0,.11,0,.22.05.33s0,0,0,.07a.14.14,0,0,0,0,.07,5.56,5.56,0,0,0,.25.82.54.54,0,0,1,.05.11,7.49,7.49,0,0,0,.36.69l.05.09a6.28,6.28,0,0,0,.48.64l.11.12a7.27,7.27,0,0,0,.57.54l.11.08a4.6,4.6,0,0,0,.69.46l0,0a5.83,5.83,0,0,0,.72.32l.12,0,.61.17c24.92,5.46,25.21,44.8,25.21,45.41v0c0,.1,0,.21,0,.32a1.48,1.48,0,0,0,0,.21c0,.15,0,.29.07.44s0,.07,0,.1a5.51,5.51,0,0,0,2.7,3.69l.05,0,.35.17.14.06.28.11.22.08.24.06.29.08.21,0,.33,0h.25l.3,0h0l.25,0h.31l.2,0a3.43,3.43,0,0,0,.34-.06l.16,0c.12,0,.25,0,.37-.09l.11,0c.13,0,.27-.09.39-.15l.05,0a5.52,5.52,0,0,0,3.05-3.41h0a4.77,4.77,0,0,0,.13-.51s0-.08,0-.11.05-.28.07-.43a1.48,1.48,0,0,1,0-.21c0-.11,0-.22,0-.32v0c0-.61.29-39.95,25.2-45.41l.61-.17.13,0a6.43,6.43,0,0,0,.71-.32l.05,0a4.51,4.51,0,0,0,.68-.46l.11-.08a6,6,0,0,0,.58-.54l.1-.12a4.28,4.28,0,0,0,.48-.64.41.41,0,0,0,.05-.09,4.52,4.52,0,0,0,.36-.69.54.54,0,0,0,.05-.11,5.59,5.59,0,0,0,.26-.82.25.25,0,0,1,0-.07s0-.05,0-.07l.06-.33,0-.22c0-.1,0-.2,0-.3a2.09,2.09,0,0,0,0-.25,2.26,2.26,0,0,0,0-.26c0-.1,0-.2,0-.3l0-.22-.06-.32s0,0,0-.08,0-.1,0-.15l-.08-.29-.09-.26-.09-.23a2.39,2.39,0,0,0-.13-.28l-.09-.19c-.06-.1-.11-.2-.17-.29s-.07-.11-.1-.16a3.15,3.15,0,0,0-.19-.27l-.13-.17-.2-.23-.17-.18-.19-.17-.22-.2-.16-.12-.28-.2-.15-.09a1.92,1.92,0,0,0-.31-.18l-.15-.08-.33-.15-.17-.07-.32-.11-.22-.05a1.29,1.29,0,0,0-.21-.06c-24.91-5.46-25.2-44.8-25.2-45.41v0c0-.11,0-.21,0-.32a1.55,1.55,0,0,1,0-.22c0-.14,0-.29-.07-.43s0-.07,0-.1a5.47,5.47,0,0,0-3.68-4.12l-.05,0-.41-.11-.12,0-.36,0-.18,0-.31,0h-.28l-.32,0h-.23c-.13,0-.25,0-.38.06l-.16,0-.38.1-.14,0a2.09,2.09,0,0,0-.35.13l-.16,0-.29.14-.19.09-.22.14-.23.14-.16.12-.26.2-.11.09-.29.26-.05.06-.3.33,0,0a5.29,5.29,0,0,0-.8,1.33v0c-.06.16-.12.32-.17.48s0,0,0,.06l-.12.46a.68.68,0,0,1,0,.14l-.06.4a1.7,1.7,0,0,0,0,.22c0,.11,0,.21,0,.32v0c0,.61-.29,40-25.21,45.41l-.28.08-.09,0-.46.16h0a5.65,5.65,0,0,0-1.74,1.12l0,0-.3.32a.39.39,0,0,0-.08.1,3.25,3.25,0,0,0-.23.29l-.11.15c-.06.09-.12.18-.17.27l-.12.2c-.05.09-.09.17-.13.26a2.29,2.29,0,0,0-.1.23c0,.09-.08.18-.11.27a2.09,2.09,0,0,0-.08.23c0,.1-.06.21-.08.31a.74.74,0,0,0,0,.14s0,0,0,.08,0,.21-.05.32l0,.22c0,.1,0,.2,0,.3s0,.17,0,.26S376.63,65.37,376.63,65.45Zm35-21.69c3.14,8.1,8.08,16.12,15.84,21.44-7.76,5.32-12.7,13.33-15.84,21.44-3.14-8.11-8.08-16.12-15.85-21.44C403.55,59.88,408.49,51.86,411.63,43.76Z"/><path d="M123.86,372.45c0-.1,0-.2,0-.3l0-.22-.06-.33a.2.2,0,0,0,0-.07s0-.1,0-.15,0-.2-.08-.3l-.09-.24-.09-.25-.12-.27c0-.07-.07-.14-.11-.2s-.1-.18-.15-.27l-.12-.19-.18-.25-.14-.18-.18-.21-.19-.2-.17-.16-.24-.21-.14-.11-.3-.21-.12-.08-.34-.19-.12-.07-.36-.16-.14-.05a2.42,2.42,0,0,0-.35-.12l-.18,0-.24-.06c-24.91-5.47-25.2-44.8-25.21-45.42v0c0-.11,0-.21,0-.32s0-.15,0-.22a3,3,0,0,0-.06-.42s0-.08,0-.12a3.89,3.89,0,0,0-.12-.49v0a5.51,5.51,0,0,0-1.73-2.59h0l-.37-.28-.06,0-.32-.2-.13-.08L91.2,317l-.2-.1-.23-.09-.28-.1-.19-.05-.33-.08-.19,0-.36-.05-.23,0h-.67l-.23,0-.38.05-.16,0a2.36,2.36,0,0,0-.38.1l-.14,0-.36.13-.15.06-.29.14-.19.09a1.64,1.64,0,0,0-.22.14l-.23.13-.16.12-.27.2-.1.1L85,318l0,0c-.1.11-.21.22-.3.34l0,0a5.12,5.12,0,0,0-.8,1.33h0c-.06.16-.12.32-.17.49,0,0,0,0,0,.06s-.09.3-.12.46,0,.09,0,.13,0,.27-.06.41a1.62,1.62,0,0,0,0,.22c0,.11,0,.21,0,.32v0c0,.62-.29,39.95-25.21,45.42l-.28.07-.1,0a3.26,3.26,0,0,0-.44.15l0,0a3.82,3.82,0,0,0-.46.21h0l-.45.26h0c-.15.09-.28.19-.42.29l0,0c-.13.1-.24.2-.36.31l-.06.06-.28.3-.1.11a3,3,0,0,0-.22.28l-.12.16c-.06.09-.11.18-.16.27l-.12.2-.14.26-.09.22a2.49,2.49,0,0,0-.11.29,1.8,1.8,0,0,0-.08.21l-.09.32,0,.14a.64.64,0,0,1,0,.07c0,.11,0,.22-.05.33l0,.22c0,.1,0,.2,0,.3s0,.17,0,.26,0,.16,0,.25,0,.2,0,.3l0,.22c0,.11,0,.22.05.33a.64.64,0,0,1,0,.07.19.19,0,0,0,0,.07,6,6,0,0,0,.25.82.47.47,0,0,1,0,.1,5.77,5.77,0,0,0,.36.7l.05.09a5.82,5.82,0,0,0,.48.63l.11.12a5.9,5.9,0,0,0,.57.55L56,377a6.24,6.24,0,0,0,.68.46l.05,0a4.64,4.64,0,0,0,.72.32l.12.05a4.24,4.24,0,0,0,.61.17c24.92,5.47,25.21,44.8,25.21,45.42v0c0,.11,0,.21,0,.32a1.62,1.62,0,0,0,0,.22l.06.42s0,.08,0,.12.08.33.13.49v0a5.41,5.41,0,0,0,1.73,2.59h0l.36.27.06.05.33.2.13.08.27.13.21.1.23.08.27.1.2,0c.11,0,.22.07.33.09l.19,0,.35.05h.23l.32,0h0l.33,0h.22a2.63,2.63,0,0,0,.39-.06l.15,0,.39-.1.14,0c.12,0,.23-.08.35-.12l.15-.06.3-.14.18-.09.23-.14.23-.14.16-.12a2.48,2.48,0,0,0,.26-.19l.1-.1.29-.26.05-.06.31-.33,0,0a6,6,0,0,0,.8-1.33v0a3.94,3.94,0,0,0,.18-.48s0,0,0-.06a3.9,3.9,0,0,0,.12-.46.68.68,0,0,0,0-.14,2.57,2.57,0,0,0,.06-.4c0-.07,0-.15,0-.22s0-.21,0-.32v0c0-.62.3-40,25.21-45.42a3.91,3.91,0,0,0,.61-.17l.13-.05a4.53,4.53,0,0,0,.71-.32l0,0a5.4,5.4,0,0,0,.68-.46l.11-.08a5,5,0,0,0,.58-.55l.1-.12a4.77,4.77,0,0,0,.48-.63l.06-.09a5.71,5.71,0,0,0,.35-.7.47.47,0,0,0,0-.1,6,6,0,0,0,.26-.82.19.19,0,0,1,0-.07.2.2,0,0,0,0-.07l.06-.33,0-.22c0-.1,0-.2,0-.3v-.51Zm-35,21.7C85.72,386,80.78,378,73,372.7c7.77-5.32,12.71-13.33,15.85-21.44,3.14,8.11,8.08,16.12,15.84,21.44C96.94,378,92,386,88.86,394.15Z"/><text x="0" y="527" fill="#000000" font-size="5px" font-weight="bold" font-family="'Helvetica Neue', Helvetica, Arial-Unicode, Arial, Sans-serif">Created by Teewara soontorn</text><text x="0" y="532" fill="#000000" font-size="5px" font-weight="bold" font-family="'Helvetica Neue', Helvetica, Arial-Unicode, Arial, Sans-serif">from the Noun Project</text></svg>