<?xml version="1.0" encoding="UTF-8"?>
<svg width="700pt" height="700pt" version="1.1" viewBox="0 0 700 700" xmlns="http://www.w3.org/2000/svg">
 <path d="m350 35c-135.22 0-245 109.78-245 245s109.78 245 245 245 245-109.78 245-245-109.78-245-245-245zm-6.4062 294.98c-43.488 35.176-92.172 66.988-143.45 97.09 38.113 38.832 91.191 62.93 149.85 62.93 11.008 0 21.824-0.85938 32.359-2.4844 8.4531-54.355-4.4805-111.41-38.762-157.54zm62.109-56.613c-11.219 11.672-23.031 22.977-35.352 33.934 37.957 50.086 54.094 111.48 48.406 171.17 30.449-10.551 57.715-27.93 79.992-50.297-0.26172-0.52344-0.52344-1.0664-0.75391-1.6445-23.484-58.328-54.266-109.38-92.297-153.16zm-85.051 30.52c-49-47.25-115.39-66.012-178.17-56.246-1.6289 10.535-2.4844 21.352-2.4844 32.359 0 44.504 13.859 85.766 37.52 119.77 51.117-29.766 99.82-61.059 143.13-95.883zm131.13-85.348c-7.0703 9.7656-14.543 19.285-22.383 28.578 38.289 43.383 69.789 93.59 94.484 150.59 22.801-33.582 36.121-74.094 36.121-117.7 0-4.2695-0.12109-8.5234-0.38672-12.723-38.5-7-75.637-23.258-107.84-48.738zm-249.95-87.289c-22.363 22.262-39.727 49.543-50.297 79.992 69.965-6.668 142.27 16.66 195.96 69.965 12.059-10.727 23.574-21.805 34.512-33.266-49.121-49.07-108.66-87.691-178.57-115.95-0.54297-0.21094-1.0859-0.47266-1.6094-0.73438zm298.25 1.9258c-8.2266 19.602-17.867 38.273-28.789 56.121 24.816 20.195 53.164 33.879 82.793 41.039-9.0469-37.238-28.035-70.613-54.004-97.16zm-137.36-62.789c-4.1992-0.26172-8.4531-0.38672-12.723-0.38672-43.609 0-84.141 13.316-117.74 36.121 67.078 29.156 124.81 67.637 173.11 115.54 7.1914-8.6992 14.051-17.621 20.547-26.793-33.898-35.719-54.949-79.152-63.191-124.48zm36.941 5.5312c7.7188 31.922 22.996 62.371 45.852 88.496 10.203-17.516 19.094-35.91 26.531-55.281-21.473-15.363-45.953-26.793-72.379-33.215z" fill-rule="evenodd"/>
</svg>
