<?xml version="1.0" encoding="UTF-8"?>
<svg width="700pt" height="700pt" version="1.1" viewBox="0 0 700 700" xmlns="http://www.w3.org/2000/svg" xmlns:xlink="http://www.w3.org/1999/xlink">
 <defs>
  <symbol id="s" overflow="visible">
   <path d="m3.6562-0.21875c-0.1875 0.09375-0.38672 0.16797-0.59375 0.21875-0.19922 0.050781-0.40625 0.078125-0.625 0.078125-0.66797 0-1.1992-0.17969-1.5938-0.54688-0.38672-0.375-0.57812-0.87891-0.57812-1.5156 0-0.64453 0.19141-1.1484 0.57812-1.5156 0.39453-0.375 0.92578-0.5625 1.5938-0.5625 0.21875 0 0.42578 0.027344 0.625 0.078125 0.20703 0.054687 0.40625 0.125 0.59375 0.21875v0.82812c-0.1875-0.125-0.375-0.21875-0.5625-0.28125-0.17969-0.0625-0.37109-0.09375-0.57812-0.09375-0.36719 0-0.65625 0.12109-0.875 0.35938-0.21094 0.23047-0.3125 0.55469-0.3125 0.96875 0 0.40625 0.10156 0.73047 0.3125 0.96875 0.21875 0.23047 0.50781 0.34375 0.875 0.34375 0.20703 0 0.39844-0.023437 0.57812-0.078125 0.1875-0.0625 0.375-0.16016 0.5625-0.29688z"/>
  </symbol>
  <symbol id="b" overflow="visible">
   <path d="m2.6875-2.1719c-0.085938-0.039063-0.16797-0.070313-0.25-0.09375-0.085938-0.019531-0.16797-0.03125-0.25-0.03125-0.25 0-0.44531 0.085937-0.57812 0.25-0.125 0.15625-0.1875 0.38281-0.1875 0.67188v1.375h-0.96875v-2.9844h0.96875v0.48438c0.11328-0.19531 0.25-0.33594 0.40625-0.42188 0.16406-0.09375 0.35938-0.14062 0.57812-0.14062h0.10938c0.039063 0 0.09375 0.007812 0.15625 0.015625z"/>
  </symbol>
  <symbol id="a" overflow="visible">
   <path d="m3.4375-1.5v0.26562h-2.2344c0.03125 0.23047 0.11328 0.40234 0.25 0.51562 0.13281 0.10547 0.32812 0.15625 0.57812 0.15625 0.20703 0 0.41406-0.023438 0.625-0.078125 0.20703-0.0625 0.42188-0.15625 0.64062-0.28125v0.73438c-0.21875 0.09375-0.44531 0.16406-0.67188 0.20312-0.23047 0.039062-0.45312 0.0625-0.67188 0.0625-0.54297 0-0.96484-0.13281-1.2656-0.40625-0.30469-0.28125-0.45312-0.67188-0.45312-1.1719 0-0.47656 0.14453-0.85938 0.4375-1.1406 0.30078-0.28125 0.70703-0.42188 1.2188-0.42188 0.46875 0 0.84375 0.14062 1.125 0.42188s0.42188 0.66406 0.42188 1.1406zm-0.96875-0.32812c0-0.17578-0.058594-0.31641-0.17188-0.42188-0.10547-0.11328-0.24219-0.17188-0.40625-0.17188-0.1875 0-0.33984 0.054687-0.45312 0.15625-0.11719 0.10547-0.1875 0.25-0.21875 0.4375z"/>
  </symbol>
  <symbol id="i" overflow="visible">
   <path d="m1.7969-1.3438c-0.19922 0-0.35156 0.039062-0.45312 0.10938-0.09375 0.0625-0.14062 0.16406-0.14062 0.29688 0 0.11719 0.035156 0.21094 0.10938 0.28125 0.082031 0.0625 0.19531 0.09375 0.34375 0.09375 0.17578 0 0.32812-0.0625 0.45312-0.1875s0.1875-0.28516 0.1875-0.48438v-0.10938zm1.4688-0.35938v1.7031h-0.96875v-0.4375c-0.125 0.17969-0.27344 0.30859-0.4375 0.39062-0.15625 0.082031-0.35156 0.125-0.57812 0.125-0.3125 0-0.57031-0.085938-0.76562-0.26562-0.1875-0.1875-0.28125-0.42188-0.28125-0.70312 0-0.35156 0.11719-0.61328 0.35938-0.78125 0.23828-0.16406 0.61719-0.25 1.1406-0.25h0.5625v-0.0625c0-0.15625-0.0625-0.26562-0.1875-0.32812-0.11719-0.070312-0.29688-0.10938-0.54688-0.10938-0.21094 0-0.40234 0.023437-0.57812 0.0625-0.17969 0.042969-0.33984 0.10156-0.48438 0.17188v-0.71875c0.19531-0.050781 0.39844-0.085938 0.60938-0.10938 0.20703-0.03125 0.41406-0.046875 0.625-0.046875 0.53906 0 0.92969 0.10938 1.1719 0.32812 0.23828 0.21094 0.35938 0.55469 0.35938 1.0312z"/>
  </symbol>
  <symbol id="c" overflow="visible">
   <path d="m1.5-3.8438v0.85938h0.98438v0.67188h-0.98438v1.2812c0 0.13672 0.023438 0.23047 0.078125 0.28125 0.0625 0.042969 0.17578 0.0625 0.34375 0.0625h0.48438v0.6875h-0.8125c-0.38672 0-0.65625-0.078125-0.8125-0.23438s-0.23438-0.42188-0.23438-0.79688v-1.2812h-0.46875v-0.67188h0.46875v-0.85938z"/>
  </symbol>
  <symbol id="h" overflow="visible">
   <path d="m2.5-2.5469v-1.6094h0.95312v4.1562h-0.95312v-0.4375c-0.13672 0.17969-0.28125 0.30859-0.4375 0.39062-0.15625 0.082031-0.33984 0.125-0.54688 0.125-0.375 0-0.68359-0.14453-0.92188-0.4375-0.23047-0.28906-0.34375-0.67188-0.34375-1.1406 0-0.45703 0.11328-0.83203 0.34375-1.125 0.23828-0.28906 0.54688-0.4375 0.92188-0.4375 0.19531 0 0.375 0.042969 0.53125 0.125 0.16406 0.085938 0.31641 0.21484 0.45312 0.39062zm-0.64062 1.9375c0.20703 0 0.36328-0.070313 0.46875-0.21875 0.11328-0.15625 0.17188-0.37891 0.17188-0.67188 0-0.28125-0.058594-0.49219-0.17188-0.64062-0.10547-0.15625-0.26172-0.23438-0.46875-0.23438-0.19922 0-0.35547 0.078125-0.46875 0.23438-0.10547 0.14844-0.15625 0.35938-0.15625 0.64062 0 0.29297 0.050781 0.51562 0.15625 0.67188 0.11328 0.14844 0.26953 0.21875 0.46875 0.21875z"/>
  </symbol>
  <symbol id="g" overflow="visible">
   <path d="m2.0469-0.60938c0.20703 0 0.36328-0.070313 0.46875-0.21875 0.11328-0.15625 0.17188-0.37891 0.17188-0.67188 0-0.28125-0.058594-0.49219-0.17188-0.64062-0.10547-0.15625-0.26172-0.23438-0.46875-0.23438-0.19922 0-0.35547 0.078125-0.46875 0.23438-0.10547 0.14844-0.15625 0.35938-0.15625 0.64062 0 0.29297 0.050781 0.51562 0.15625 0.67188 0.11328 0.14844 0.26953 0.21875 0.46875 0.21875zm-0.625-1.9375c0.125-0.17578 0.26562-0.30469 0.42188-0.39062 0.16406-0.082031 0.35156-0.125 0.5625-0.125 0.36328 0 0.66406 0.14844 0.90625 0.4375 0.23828 0.29297 0.35938 0.66797 0.35938 1.125 0 0.46875-0.12109 0.85156-0.35938 1.1406-0.24219 0.29297-0.54297 0.4375-0.90625 0.4375-0.21094 0-0.39844-0.042969-0.5625-0.125-0.15625-0.082031-0.29688-0.21094-0.42188-0.39062v0.4375h-0.96875v-4.1562h0.96875z"/>
  </symbol>
  <symbol id="f" overflow="visible">
   <path d="m0.0625-2.9844h0.95312l0.8125 2.0156 0.6875-2.0156h0.95312l-1.2656 3.2656c-0.125 0.33203-0.27344 0.56641-0.4375 0.70312-0.16797 0.13281-0.39062 0.20312-0.67188 0.20312h-0.54688v-0.64062h0.29688c0.16406 0 0.28516-0.027344 0.35938-0.078125 0.070313-0.054688 0.12891-0.14062 0.17188-0.26562l0.03125-0.09375z"/>
  </symbol>
  <symbol id="e" overflow="visible">
   <path d="m0.45312-2.9844h0.96875v2.9844h-0.96875zm0-1.1719h0.96875v0.78125h-0.96875z"/>
  </symbol>
  <symbol id="k" overflow="visible">
   <path d="m3.4688-1.8281v1.8281h-0.96875v-1.3906c0-0.25781-0.007812-0.4375-0.015625-0.53125-0.011719-0.10156-0.03125-0.17578-0.0625-0.21875-0.03125-0.0625-0.085937-0.10938-0.15625-0.14062-0.0625-0.039062-0.13281-0.0625-0.20312-0.0625-0.21094 0-0.37109 0.078125-0.48438 0.23438-0.10547 0.15625-0.15625 0.37109-0.15625 0.64062v1.4688h-0.96875v-2.9844h0.96875v0.4375c0.13281-0.17578 0.28516-0.30469 0.45312-0.39062 0.16406-0.082031 0.34375-0.125 0.53125-0.125 0.34375 0 0.60156 0.10938 0.78125 0.32812 0.1875 0.21094 0.28125 0.51172 0.28125 0.90625z"/>
  </symbol>
  <symbol id="j" overflow="visible">
   <path d="m2.4219-4.1562v0.625h-0.51562c-0.13672 0-0.23438 0.027344-0.29688 0.078125-0.054687 0.054687-0.078125 0.13672-0.078125 0.25v0.21875h0.82812v0.67188h-0.82812v2.3125h-0.95312v-2.3125h-0.46875v-0.67188h0.46875v-0.21875c0-0.32031 0.085937-0.5625 0.26562-0.71875 0.1875-0.15625 0.47266-0.23438 0.85938-0.23438z"/>
  </symbol>
  <symbol id="d" overflow="visible">
   <path d="m1.875-2.375c-0.21094 0-0.37109 0.078125-0.48438 0.23438-0.10547 0.14844-0.15625 0.35938-0.15625 0.64062 0 0.29297 0.050781 0.51562 0.15625 0.67188 0.11328 0.14844 0.27344 0.21875 0.48438 0.21875 0.20703 0 0.36719-0.070313 0.48438-0.21875 0.11328-0.15625 0.17188-0.37891 0.17188-0.67188 0-0.28125-0.058594-0.49219-0.17188-0.64062-0.11719-0.15625-0.27734-0.23438-0.48438-0.23438zm0-0.6875c0.51953 0 0.92188 0.14062 1.2031 0.42188 0.28906 0.27344 0.4375 0.65234 0.4375 1.1406 0 0.5-0.14844 0.89062-0.4375 1.1719-0.28125 0.27344-0.68359 0.40625-1.2031 0.40625-0.51172 0-0.91406-0.13281-1.2031-0.40625-0.29297-0.28125-0.4375-0.67188-0.4375-1.1719 0-0.48828 0.14453-0.86719 0.4375-1.1406 0.28906-0.28125 0.69141-0.42188 1.2031-0.42188z"/>
  </symbol>
  <symbol id="r" overflow="visible">
   <path d="m3.2344-2.5c0.11328-0.17578 0.25391-0.3125 0.42188-0.40625 0.16406-0.10156 0.35156-0.15625 0.5625-0.15625 0.33203 0 0.58594 0.10938 0.76562 0.32812 0.1875 0.21094 0.28125 0.51172 0.28125 0.90625v1.8281h-0.96875v-1.5625c0.007813-0.019531 0.015625-0.039062 0.015625-0.0625v-0.10938c0-0.21875-0.03125-0.375-0.09375-0.46875s-0.16406-0.14062-0.29688-0.14062c-0.1875 0-0.33594 0.078125-0.4375 0.23438-0.09375 0.14844-0.14062 0.35938-0.14062 0.64062v1.4688h-0.96875v-1.5625c0-0.33203-0.03125-0.54688-0.09375-0.64062-0.054688-0.09375-0.15234-0.14062-0.29688-0.14062-0.17969 0-0.32031 0.078125-0.42188 0.23438-0.09375 0.14844-0.14062 0.35938-0.14062 0.64062v1.4688h-0.96875v-2.9844h0.96875v0.4375c0.11328-0.17578 0.24219-0.30469 0.39062-0.39062 0.15625-0.082031 0.32812-0.125 0.51562-0.125 0.20703 0 0.39062 0.054688 0.54688 0.15625 0.15625 0.09375 0.27344 0.23047 0.35938 0.40625z"/>
  </symbol>
  <symbol id="q" overflow="visible">
   <path d="m3.4688-1.8281v1.8281h-0.96875v-1.3906c0-0.25781-0.007812-0.4375-0.015625-0.53125-0.011719-0.10156-0.03125-0.17578-0.0625-0.21875-0.03125-0.0625-0.085937-0.10938-0.15625-0.14062-0.0625-0.039062-0.13281-0.0625-0.20312-0.0625-0.21094 0-0.37109 0.078125-0.48438 0.23438-0.10547 0.15625-0.15625 0.37109-0.15625 0.64062v1.4688h-0.96875v-4.1562h0.96875v1.6094c0.13281-0.17578 0.28516-0.30469 0.45312-0.39062 0.16406-0.082031 0.34375-0.125 0.53125-0.125 0.34375 0 0.60156 0.10938 0.78125 0.32812 0.1875 0.21094 0.28125 0.51172 0.28125 0.90625z"/>
  </symbol>
  <symbol id="p" overflow="visible">
   <path d="m0.5-3.9844h1.1562l1.4375 2.7344v-2.7344h0.98438v3.9844h-1.1562l-1.4375-2.7344v2.7344h-0.98438z"/>
  </symbol>
  <symbol id="o" overflow="visible">
   <path d="m0.42188-1.1719v-1.8125h0.96875v0.29688 0.60938 0.48438c0 0.24219 0.003906 0.41797 0.015625 0.53125 0.007812 0.10547 0.03125 0.17969 0.0625 0.21875 0.039062 0.0625 0.09375 0.11719 0.15625 0.15625 0.0625 0.03125 0.13281 0.046875 0.21875 0.046875 0.19531 0 0.35156-0.078125 0.46875-0.23438 0.11328-0.15625 0.17188-0.36719 0.17188-0.64062v-1.4688h0.95312v2.9844h-0.95312v-0.4375c-0.14844 0.17969-0.30469 0.30859-0.46875 0.39062-0.15625 0.082031-0.33594 0.125-0.53125 0.125-0.34375 0-0.60938-0.10156-0.79688-0.3125-0.17969-0.21875-0.26562-0.53125-0.26562-0.9375z"/>
  </symbol>
  <symbol id="n" overflow="visible">
   <path d="m0.5-3.9844h1.7031c0.50781 0 0.89844 0.11719 1.1719 0.34375 0.26953 0.21875 0.40625 0.53906 0.40625 0.95312 0 0.41797-0.13672 0.74219-0.40625 0.96875-0.27344 0.21875-0.66406 0.32812-1.1719 0.32812h-0.67188v1.3906h-1.0312zm1.0312 0.75v1.1094h0.5625c0.19531 0 0.34766-0.046875 0.45312-0.14062 0.11328-0.10156 0.17188-0.24219 0.17188-0.42188 0-0.17578-0.058594-0.3125-0.17188-0.40625-0.10547-0.09375-0.25781-0.14062-0.45312-0.14062z"/>
  </symbol>
  <symbol id="m" overflow="visible">
   <path d="m0.45312-2.9844h0.96875v2.9375c0 0.39453-0.10156 0.69531-0.29688 0.90625-0.1875 0.21875-0.46484 0.32812-0.82812 0.32812h-0.48438v-0.64062h0.17188c0.17578 0 0.29688-0.042969 0.35938-0.125 0.070312-0.074219 0.10938-0.23047 0.10938-0.46875zm0-1.1719h0.96875v0.78125h-0.96875z"/>
  </symbol>
  <symbol id="l" overflow="visible">
   <path d="m2.875-2.8906v0.76562c-0.125-0.082031-0.25781-0.14453-0.39062-0.1875-0.13672-0.039062-0.27344-0.0625-0.40625-0.0625-0.27344 0-0.48047 0.078125-0.625 0.23438-0.14844 0.15625-0.21875 0.37109-0.21875 0.64062 0 0.28125 0.070313 0.5 0.21875 0.65625 0.14453 0.15625 0.35156 0.23438 0.625 0.23438 0.14453 0 0.28516-0.019531 0.42188-0.0625 0.13281-0.039063 0.25781-0.10938 0.375-0.20312v0.78125c-0.14844 0.0625-0.29688 0.10156-0.45312 0.125-0.15625 0.03125-0.3125 0.046875-0.46875 0.046875-0.54297 0-0.96484-0.13281-1.2656-0.40625-0.30469-0.28125-0.45312-0.67188-0.45312-1.1719 0-0.48828 0.14844-0.86719 0.45312-1.1406 0.30078-0.28125 0.72266-0.42188 1.2656-0.42188 0.15625 0 0.3125 0.015625 0.46875 0.046875 0.15625 0.023437 0.30469 0.0625 0.45312 0.125z"/>
  </symbol>
 </defs>
 <g>
  <path d="m606.54 322.72c3.7148 3.8242 6.0039 9.0547 6.0039 14.789 0 5.7422-2.418 11.098-6.2539 14.938l-0.125 0.125c-3.8359 3.6992-9.0547 5.9922-14.801 5.9922-5.7422 0-11.102-2.418-14.801-6.1172l-0.25-0.26172c-3.7148-3.8242-6.0039-8.9297-6.0039-14.676 0-5.8672 2.2891-11.086 6.1289-14.926l0.25-0.25c3.8359-3.6992 9.0703-5.9922 14.676-5.9922 5.8672 0 11.098 2.418 14.926 6.2422zm-6.3789 14.789c0-2.418-1.0234-4.7109-2.5391-6.2422-1.668-1.5312-3.8359-2.5547-6.2539-2.5547s-4.582 1.0234-6.1289 2.5547c-1.6445 1.5312-2.6641 3.8242-2.6641 6.2422 0 2.4297 1.0195 4.5977 2.5391 6.2539 1.668 1.5312 3.8359 2.5547 6.2539 2.5547s4.5859-1.0234 6.2539-2.5547c1.5195-1.6562 2.5391-3.8242 2.5391-6.2539z"/>
  <path d="m592.76 125.87c2.9414 1.6562 3.9609 5.4922 2.168 8.4219-0.5 1.0234-1.2734 1.6562-2.168 2.168l-22.445 13.02c-2.9297 1.6562-6.7539 0.63672-8.4219-2.168-1.7812-3.0664-0.76172-6.7656 2.168-8.5469l13.281-7.5391-13.281-7.7734c-2.9297-1.6562-3.9492-5.3555-2.168-8.2969 1.668-2.9297 5.4922-3.9492 8.4219-2.293z"/>
  <path d="m547.22 166.45h-184.22l7.1523 29.078h50.254l-84.57 76.68c-17.352-23.855-57.793-73.863-85.984-114.95h63.277v-22.188l0.76563-4.9844h-0.76563v-2.043l-209.98-0.003907v29.215h62.254c24.242 18.887 116.6 134.72 120.55 146.33 1.5312 10.84 2.9336 74.625-1.6562 79.469-9.0586 9.6914-50.52 7.1523-60.473 7.7852l-3.4453 19.77c2.168 0.125 4.9766 0.125 8.1641 0.125 23.727 0 71.695-1.5312 87.898-1.5312h45.16c29.461 0 58.305 0 64.035 0.51172l1.1484-20.793c-9.1836-1.5312-59.449-0.12109-66.332-1.7812-1.5312-9.957-3.1914-77.316-1.6562-84.203 6.8984-20.145 112.39-101.92 124-104.98 2.543-0.51172 6.5039-1.4062 10.84-2.4297h33.938l5.3555-7.7734c0.12109-0.13672 0.25-0.13672 0.38672-0.13672l13.145-19c-0.125 0-0.52344-0.13672-0.64844-0.13672zm39.805 55.75c2.8047 3.8242 3.8242 8.7969 2.5391 13.395l-32.777 127.43c-0.63672 2.3047-1.6562 4.3477-3.0664 6.0039 0.38672 0.37109 0.89844 0.88281 1.2852 1.2695 2.8047 3.5742 3.9492 7.9102 3.4375 12.371l-4.582 30.5c-1.1484 7.6484-7.7852 13.391-15.574 13.391-0.375 0-0.76953 0-1.1445-0.12109l-15.699-1.1484-14.277-1.2812c-8.0469-0.63672-14.301-7.3984-14.301-15.562l-0.125-31.133c0-4.4609 1.918-8.7969 5.2344-11.734 0.52344-0.51172 1.0234-0.88281 1.5312-1.1445-1.1445-2.293-1.9062-4.8477-1.9062-7.5273l-0.76953-131.27c0-4.7188 2.043-9.1797 5.7422-12.121 1.0234-1.0234 2.168-1.6562 3.4492-2.293h-10.59c-3.1914 0.76172-5.8828 1.2695-8.1719 1.7812-17.219 8.5469-103.08 77.18-113.14 94.145-0.64844 9.4453 0 45.16 1.0078 65.066 5.7422 0.125 12.633 0.125 17.988 0.125 18.875 0.125 30.746 0.125 36.363 1.1445 7.7734 1.2852 13.379 8.2969 13.008 16.332l-1.1484 20.668c-0.12109 4.2109-2.043 8.1602-5.2344 10.961-2.9414 2.5547-6.6289 3.9609-10.465 3.9609h-1.1445c-6.2539-0.50781-48.859-0.50781-62.887-0.50781h-45.16c-7.2773 0-20.926 0.25-35.98 0.75781-18.113 0.38672-38.781 0.77344-51.918 0.77344-3.4453 0-6.3789 0-8.6758-0.125-4.5898 0-8.8008-2.1836-11.734-5.7422-2.8047-3.4492-4.0781-8.1758-3.3125-12.633l3.4453-19.77c1.2695-7.0156 7.2695-12.512 14.414-12.883 2.293-0.26172 6.2461-0.26172 11.102-0.26172 7.3945 0 27.938 0 36.996-2.4297 1.4023-14.027 1.0234-51.789-0.13281-64.547-10.461-17.988-85.344-111.36-110.98-135.09l-56.516 0.003907c-8.6797 0-15.691-7.1523-15.691-15.699v-29.215c0-8.6719 7.0117-15.684 15.691-15.684h209.98c7.2773 0 13.398 4.8438 15.18 11.609 1.1523 2.5547 1.5312 5.4805 1.1523 8.5469l-0.51172 3.6992v21.043c0 8.5469-7.1445 15.699-15.82 15.699h-32.914c13.91 18.875 28.836 38.27 41.59 54.852 5.9922 7.6484 11.48 14.801 16.328 21.18l41.59-37.758h-9.5664c-7.2773 0-13.523-4.8477-15.309-11.996l-7.1484-29.078c-1.0234-4.5977 0-9.5664 2.9336-13.406 3.0664-3.8242 7.5312-5.9922 12.371-5.9922h184.34c8.6836 0 15.562 7.0117 15.562 15.699 0 2.293-0.375 4.4609-1.2695 6.5039-0.51172 1.6562-1.2695 3.1875-2.168 4.5977l-13.133 18.996c-0.64844 0.77344-1.2852 1.5312-1.918 2.168l-3.8398 5.6172c-2.9297 4.3359-7.7734 6.8906-13.004 6.8906h-2.418c15.809 1.7812 45.531 4.5977 49.746 4.7188 4.8477 0.12891 9.1797 2.4219 12.121 6.2578zm-45.422 136.88 32.789-127.45c-5.4805-0.125-55.363-4.8477-61.867-6.1172l0.75781 131.39zm-3.3164 51.664 4.5977-30.363-16.332-0.89453-18.113-2.168 0.125 31.133 14.289 1.1445z"/>
  <path d="m564.19 537.29c0 3.4492-2.6758 6.1289-6.1172 6.1289h-32.031c-3.4492 0-6.2422-2.6797-6.2422-6.1289 0-3.3125 2.793-6.1172 6.2422-6.1172h32.031c3.4414 0 6.1172 2.8008 6.1172 6.1172z"/>
  <path d="m536.64 547.63c3.4492 0 6.1172 2.8047 6.1172 6.1172 0 3.4492-2.668 6.2539-6.1172 6.2539h-68.633c-3.4375 0-6.1289-2.8047-6.1289-6.2539 0-3.3125 2.6914-6.1172 6.1289-6.1172z"/>
  <path d="m251.77 474.79c2.9336 2.9297 4.8516 7.0117 4.8516 11.609 0 4.4609-1.918 8.5469-4.8516 11.473-2.9336 2.9414-7.0156 4.8477-11.48 4.8477-4.5898 0-8.6758-1.9062-11.609-4.8477-2.9336-2.9258-4.8477-7.0156-4.8477-11.473 0-4.5977 1.9141-8.6836 4.8477-11.609 2.9336-2.9414 7.0195-4.8438 11.609-4.8438 4.4648 0 8.543 1.9062 11.48 4.8438zm-7.5273 11.609c0-1.1602-0.37891-2.1797-1.1445-2.8125-0.76562-0.76172-1.7891-1.2695-2.8086-1.2695-1.1445 0-2.168 0.50781-2.8047 1.2695-0.76562 0.63672-1.2773 1.6562-1.2773 2.8125 0 1.0078 0.50781 2.0312 1.2773 2.8047 0.63672 0.76172 1.6562 1.1484 2.8047 1.1484 1.0234 0 2.043-0.38672 2.8086-1.1484 0.76562-0.76953 1.1445-1.793 1.1445-2.8047z"/>
  <path d="m213.62 19.867c0.89062 3.3125-1.0234 6.7656-4.3438 7.5234l-10.969 3.0664c-3.3125 0.75781-6.6328-1.1445-7.5234-4.4727-0.89844-3.1875 1.1445-6.6289 4.3359-7.5234l10.969-2.9258c3.3203-0.77734 6.7656 1.1406 7.5312 4.332z"/>
  <path d="m198.32 46.527c0.89844 3.3125-1.0234 6.6406-4.3359 7.5234-3.3203 0.89844-6.6328-1.1445-7.5234-4.3359l-2.9414-10.715c-0.89062-3.3125 1.1523-6.7656 4.4648-7.5234 3.1914-1.0234 6.6328 1.0234 7.5312 4.3359z"/>
  <path d="m189.89 14.895c0.89844 3.3125-1.1445 6.6289-4.3359 7.5234-3.3125 0.88672-6.7578-1.0234-7.5234-4.3359l-2.8086-10.34c-0.89062-3.3125 1.0234-6.6289 4.3438-7.5234 3.3125-0.89453 6.6328 1.0234 7.5234 4.3359z"/>
  <path d="m183.01 28.152c0.76172 3.3242-1.1523 6.6406-4.3398 7.5391l-11.227 3.0508c-3.3125 0.77344-6.6328-1.1445-7.5234-4.4609-0.89844-3.1875 1.0234-6.6289 4.3359-7.5234l11.223-2.9414c3.1875-0.88281 6.6328 1.0234 7.5312 4.3359z"/>
  <path d="m127.01 270.16 3.3125 11.098-11.734 3.4375-3.3164-10.973z"/>
  <path d="m118.59 284.7 3.3164 11.102-11.863 3.5742-3.3125-11.102z"/>
  <path d="m111.95 262.64 3.3203 11.09-11.734 3.4492-3.3203-10.973z"/>
  <path d="m103.4 277.18 3.3242 11.098-11.746 3.5781-3.3125-11.102z"/>
  <use x="70" y="576.40625" xlink:href="#s"/>
  <use x="74.011719" y="576.40625" xlink:href="#b"/>
  <use x="76.710938" y="576.40625" xlink:href="#a"/>
  <use x="80.417969" y="576.40625" xlink:href="#i"/>
  <use x="84.109375" y="576.40625" xlink:href="#c"/>
  <use x="86.722656" y="576.40625" xlink:href="#a"/>
  <use x="90.433594" y="576.40625" xlink:href="#h"/>
  <use x="96.25" y="576.40625" xlink:href="#g"/>
  <use x="100.167969" y="576.40625" xlink:href="#f"/>
  <use x="105.636719" y="576.40625" xlink:href="#e"/>
  <use x="107.507812" y="576.40625" xlink:href="#g"/>
  <use x="111.425781" y="576.40625" xlink:href="#b"/>
  <use x="114.121094" y="576.40625" xlink:href="#i"/>
  <use x="117.8125" y="576.40625" xlink:href="#k"/>
  <use x="121.703125" y="576.40625" xlink:href="#h"/>
  <use x="125.621094" y="576.40625" xlink:href="#e"/>
  <use x="127.492188" y="576.40625" xlink:href="#j"/>
  <use x="129.875" y="576.40625" xlink:href="#f"/>
  <use x="70" y="581.875" xlink:href="#j"/>
  <use x="72.378906" y="581.875" xlink:href="#b"/>
  <use x="75.078125" y="581.875" xlink:href="#d"/>
  <use x="78.832031" y="581.875" xlink:href="#r"/>
  <use x="86.4375" y="581.875" xlink:href="#c"/>
  <use x="89.050781" y="581.875" xlink:href="#q"/>
  <use x="92.941406" y="581.875" xlink:href="#a"/>
  <use x="98.554688" y="581.875" xlink:href="#p"/>
  <use x="103.132812" y="581.875" xlink:href="#d"/>
  <use x="106.890625" y="581.875" xlink:href="#o"/>
  <use x="110.785156" y="581.875" xlink:href="#k"/>
  <use x="116.582031" y="581.875" xlink:href="#n"/>
  <use x="120.589844" y="581.875" xlink:href="#b"/>
  <use x="123.285156" y="581.875" xlink:href="#d"/>
  <use x="127.042969" y="581.875" xlink:href="#m"/>
  <use x="128.917969" y="581.875" xlink:href="#a"/>
  <use x="132.625" y="581.875" xlink:href="#l"/>
  <use x="135.867188" y="581.875" xlink:href="#c"/>
 </g>
</svg>
