<svg xmlns:dc="http://purl.org/dc/elements/1.1/" xmlns:cc="http://creativecommons.org/ns#" xmlns:rdf="http://www.w3.org/1999/02/22-rdf-syntax-ns#" xmlns:svg="http://www.w3.org/2000/svg" xmlns="http://www.w3.org/2000/svg" xmlns:sodipodi="http://sodipodi.sourceforge.net/DTD/sodipodi-0.dtd" xmlns:inkscape="http://www.inkscape.org/namespaces/inkscape" viewBox="0 0 16.933333 21.1666675" version="1.1" x="0px" y="0px"><g transform="translate(127.85095,-44.127139)"><path style="color:#000000;font-style:normal;font-variant:normal;font-weight:normal;font-stretch:normal;font-size:medium;line-height:normal;font-family:sans-serif;font-variant-ligatures:normal;font-variant-position:normal;font-variant-caps:normal;font-variant-numeric:normal;font-variant-alternates:normal;font-feature-settings:normal;text-indent:0;text-align:start;text-decoration:none;text-decoration-line:none;text-decoration-style:solid;text-decoration-color:#000000;letter-spacing:normal;word-spacing:normal;text-transform:none;writing-mode:lr-tb;direction:ltr;text-orientation:mixed;dominant-baseline:auto;baseline-shift:baseline;text-anchor:start;white-space:normal;shape-padding:0;clip-rule:nonzero;display:inline;overflow:visible;visibility:visible;opacity:1;isolation:auto;mix-blend-mode:normal;color-interpolation:sRGB;color-interpolation-filters:linearRGB;solid-color:#000000;solid-opacity:1;vector-effect:none;fill:#000000;fill-opacity:1;fill-rule:nonzero;stroke:none;stroke-width:0.5291667;stroke-linecap:butt;stroke-linejoin:round;stroke-miterlimit:4;stroke-dasharray:none;stroke-dashoffset:0;stroke-opacity:1;paint-order:normal;color-rendering:auto;image-rendering:auto;shape-rendering:auto;text-rendering:auto;enable-background:accumulate" d="m -119.38429,45.450062 c -3.06549,-1.1e-5 -5.55625,2.49075 -5.55625,5.55625 0,2.513825 1.67545,4.639958 3.96875,5.324224 v 0.496609 c 0,0.737481 -0.58543,1.322917 -1.32291,1.322917 h -0.79375 c -0.58174,0 -1.05834,0.476594 -1.05834,1.058333 v 0.264584 c -5.2e-4,0.146169 0.11842,0.264062 0.26459,0.264583 h 8.99583 c 0.14618,-5.29e-4 0.26515,-0.118414 0.26459,-0.264583 v -0.264584 c 0,-0.581739 -0.4766,-1.058333 -1.05834,-1.058333 h -0.79375 c -0.73748,0 -1.32292,-0.585436 -1.32292,-1.322917 v -0.496609 c 2.2933,-0.684266 3.96876,-2.810399 3.96876,-5.324224 0,-3.0655 -2.49076,-5.556261 -5.55626,-5.55625 z m 0,0.529166 c 2.77952,0 5.0271,2.247564 5.02709,5.027084 1e-5,2.779509 -2.24757,5.027083 -5.02709,5.027083 -2.77951,0 -5.02709,-2.247574 -5.02708,-5.027083 -10e-6,-2.77952 2.24757,-5.027084 5.02708,-5.027084 z m -1.05833,10.481014 c 0.34282,0.06631 0.69633,0.10232 1.05833,0.10232 0.36201,0 0.71552,-0.03601 1.05834,-0.10232 v 0.366903 c 0,0.52368 0.22577,0.985766 0.57619,1.322917 h -3.26905 c 0.35042,-0.337151 0.57636,-0.799237 0.57619,-1.322917 z m -2.64583,2.218987 c 2.46944,0 4.93889,0 7.40833,0 0.29772,0 0.52917,0.231447 0.52917,0.529166 h -8.46667 c 0,-0.297719 0.23145,-0.529166 0.52917,-0.529166 z"/><path style="color:#000000;font-style:normal;font-variant:normal;font-weight:normal;font-stretch:normal;font-size:medium;line-height:normal;font-family:sans-serif;font-variant-ligatures:normal;font-variant-position:normal;font-variant-caps:normal;font-variant-numeric:normal;font-variant-alternates:normal;font-feature-settings:normal;text-indent:0;text-align:start;text-decoration:none;text-decoration-line:none;text-decoration-style:solid;text-decoration-color:#000000;letter-spacing:normal;word-spacing:normal;text-transform:none;writing-mode:lr-tb;direction:ltr;text-orientation:mixed;dominant-baseline:auto;baseline-shift:baseline;text-anchor:start;white-space:normal;shape-padding:0;clip-rule:nonzero;display:inline;overflow:visible;visibility:visible;opacity:1;isolation:auto;mix-blend-mode:normal;color-interpolation:sRGB;color-interpolation-filters:linearRGB;solid-color:#000000;solid-opacity:1;vector-effect:none;fill:#000000;fill-opacity:1;fill-rule:nonzero;stroke:none;stroke-width:0.52916664;stroke-linecap:butt;stroke-linejoin:round;stroke-miterlimit:4;stroke-dasharray:none;stroke-dashoffset:0;stroke-opacity:1;paint-order:normal;color-rendering:auto;image-rendering:auto;shape-rendering:auto;text-rendering:auto;enable-background:accumulate" d="m -120.17811,47.30227 c -0.35277,0 -0.67516,0.16875 -0.91516,0.40875 -0.24002,0.24 -0.40772,0.56135 -0.40772,0.91412 6e-5,0.0704 0.0275,0.13796 0.0775,0.18758 l 0.99836,0.99836 c -0.25657,0.22382 -0.44129,0.52796 -0.51313,0.87278 l -1.30893,-0.34984 c -0.0264,-0.009 -0.078,-0.0103 -0.078,-0.0103 v 5.2e-4 c -0.0433,10e-4 -0.0855,0.0136 -0.12299,0.0351 -0.30551,0.17638 -0.50021,0.48292 -0.58806,0.81078 -0.0879,0.32786 -0.0725,0.69026 0.10387,0.99577 l 0.79476,1.37506 c 0.1764,0.30551 0.48293,0.50021 0.81078,0.58806 0.32787,0.0879 0.69028,0.0725 0.99578,-0.10387 0.0606,-0.035 0.10476,-0.0927 0.12299,-0.16019 l 0.36017,-1.34096 c 0.14683,0.0451 0.30235,0.0698 0.46353,0.0698 0.16118,0 0.3167,-0.0246 0.46352,-0.0698 l 0.36018,1.34096 c 0.0182,0.0676 0.0624,0.12518 0.12298,0.16019 0.30551,0.17639 0.66793,0.19172 0.99578,0.10387 0.32785,-0.0879 0.6344,-0.28255 0.81079,-0.58806 l 0.79476,-1.37506 c 0.17638,-0.30551 0.19172,-0.66791 0.10386,-0.99577 -0.0879,-0.32786 -0.28255,-0.6344 -0.58806,-0.81078 -0.0347,-0.0201 -0.0771,-0.0284 -0.11368,-0.031 v -5.3e-4 c -0.0366,-0.003 -0.0675,2.6e-4 -0.0801,0.004 l -1.31616,0.3519 c -0.0718,-0.34482 -0.25656,-0.64896 -0.51314,-0.87278 l 0.99837,-0.99836 c 0.0499,-0.0496 0.0775,-0.11717 0.0775,-0.18756 0,-0.35277 -0.1677,-0.67412 -0.40772,-0.91412 -0.24,-0.24 -0.56239,-0.40875 -0.91516,-0.40875 z m 0,0.52914 h 1.58746 c 0.17638,0 0.38315,0.0958 0.54,0.25269 0.13485,0.13484 0.19645,0.30738 0.2191,0.46508 l -0.9782,0.97924 c -0.17858,-0.0699 -0.37194,-0.10956 -0.57463,-0.10956 -0.20293,0 -0.3964,0.04 -0.57514,0.11007 l -0.9777,-0.97975 c 0.0226,-0.1577 0.0843,-0.33024 0.2191,-0.46508 0.15686,-0.15685 0.36363,-0.25269 0.54001,-0.25269 z m 0.79373,2.1166 c 0.58762,0 1.05831,0.47068 1.0583,1.0583 1e-5,0.58761 -0.47068,1.0583 -1.0583,1.0583 -0.58762,0 -1.05832,-0.47069 -1.05831,-1.0583 -1e-5,-0.58762 0.47069,-1.0583 1.05831,-1.0583 z m 2.84523,0.93634 c 0.12601,0.0983 0.24496,0.23714 0.29455,0.42219 0.0574,0.21427 0.0376,0.44305 -0.0506,0.59581 l -0.79321,1.37454 c -0.0882,0.15275 -0.2756,0.28468 -0.48988,0.34209 -0.18404,0.0493 -0.36374,0.0162 -0.51158,-0.0429 l -0.34829,-1.29911 c 0.33191,-0.24808 0.56341,-0.62192 0.62372,-1.05002 z m -5.69046,5.3e-4 c 0.42504,0.11393 0.85021,0.22807 1.27534,0.34209 0.0603,0.4281 0.29181,0.80194 0.62372,1.05002 l -0.34829,1.29911 c -0.14786,0.0591 -0.32754,0.0922 -0.51158,0.0429 -0.21428,-0.0574 -0.4022,-0.18882 -0.4904,-0.34157 l -0.7927,-1.37506 c -0.0882,-0.15276 -0.10809,-0.38154 -0.0506,-0.59581 0.0496,-0.18505 0.16851,-0.32336 0.29455,-0.42167 z"/></g><text x="0" y="31.933334" fill="#000000" font-size="5px" font-weight="bold" font-family="'Helvetica Neue', Helvetica, Arial-Unicode, Arial, Sans-serif">Created by Ranah Pixel Studio</text><text x="0" y="36.933334" fill="#000000" font-size="5px" font-weight="bold" font-family="'Helvetica Neue', Helvetica, Arial-Unicode, Arial, Sans-serif">from the Noun Project</text></svg>