<svg xmlns="http://www.w3.org/2000/svg" xmlns:xlink="http://www.w3.org/1999/xlink" version="1.1" x="0px" y="0px" viewBox="0 0 68 85" enable-background="new 0 0 68 68" xml:space="preserve"><g><path d="M62.6,30.2c-1.4-3.4-3.2-6.5-5.3-9.5l0,0c1.1-0.8,1.2-2.5,0.2-3.5l-6.9-6.9c-1-1-2.6-0.9-3.5,0.2l-0.1,0.1   c-8.3-6-18.3-8.8-27.4-8.5c-0.9,0-1.7,0.6-2.1,1.5c-0.5,1.2,0.1,2.5,1.3,3c8,3.2,15.3,6.6,22,12.2l-1,1.3c-0.6,0.8-0.6,1.8-0.1,2.6   L14.9,47.6c-0.9-0.5-2.2-0.4-3,0.4l-8.3,8.3c-2.4,2.4-2.1,6.3,0.4,8.4c2.2,1.8,5.6,1.6,7.7-0.5l8.2-8.2c0.5-0.5,0.7-1.1,0.7-1.7   c0-0.4-0.1-0.9-0.3-1.3l24.9-24.9c0.4,0.2,0.8,0.4,1.2,0.4c0.5,0,1-0.2,1.4-0.5l1.2-0.9c1.8,2.3,3.4,4.7,4.9,7.3   c2.7,4.7,4.8,9.9,6.4,14.2l0,0c0.4,1.1,1.5,1.9,2.7,1.9H63c1.6,0,2.9-1.3,3-2.9C66.1,41.9,64.9,35.9,62.6,30.2z M19.7,4.8   c-0.2-0.1-0.2-0.3-0.2-0.4c0.1-0.1,0.2-0.2,0.3-0.2c8.5-0.4,18.2,2.4,26.2,8.1l-3.8,4.9C35.3,11.5,28,8.1,19.7,4.8z M10.4,62.7   c-1.4,1.4-3.6,1.6-5,0.4c-1.7-1.4-1.8-3.9-0.3-5.4l8.6-8.6l5.1,5.1L10.4,62.7z M18.9,51.5L16.4,49l24.8-24.8l2.5,2.5L18.9,51.5z    M46.6,26.4c-0.1,0.1-0.3,0.1-0.4,0l-4.6-4.6c-0.1-0.1-0.1-0.3,0-0.4c2-2.5,4.2-5.5,7.3-9.5c0.1-0.2,0.3-0.2,0.5,0l6.9,6.9   c0.2,0.2,0.1,0.4,0,0.5C51,23,46.6,26.4,46.6,26.4z M63,48.6c-0.4,0-0.7-0.3-0.9-0.6l0,0v0c-1.7-4.4-3.8-9.7-6.5-14.5   c-1.5-2.7-3.2-5.2-5-7.6l5.1-3.9c2,2.8,3.7,5.8,5.1,9c2.2,5.4,3.4,11.2,3.3,16.7C64,48.2,63.5,48.7,63,48.6z"/></g><text x="0" y="83" fill="#000000" font-size="5px" font-weight="bold" font-family="'Helvetica Neue', Helvetica, Arial-Unicode, Arial, Sans-serif">Created by Vectors Point</text><text x="0" y="88" fill="#000000" font-size="5px" font-weight="bold" font-family="'Helvetica Neue', Helvetica, Arial-Unicode, Arial, Sans-serif">from the Noun Project</text></svg>