<svg xmlns="http://www.w3.org/2000/svg" xmlns:xlink="http://www.w3.org/1999/xlink" version="1.1" x="0px" y="0px" viewBox="0 0 600 342.5" style="enable-background:new 0 0 600 274;" xml:space="preserve"><g><g><path d="M79,254.7c-3.2,0-5.8-2.6-5.8-5.8V29.5H52.6c-3.2,0-5.8-2.6-5.8-5.8s2.6-5.8,5.8-5.8H79c3.2,0,5.8,2.6,5.8,5.8v225.2    C84.8,252.1,82.2,254.7,79,254.7z"/></g><g><path d="M79,93.5H59.7c-3.2,0-5.8-2.6-5.8-5.8V60c0-3.2,2.6-5.8,5.8-5.8H79c3.2,0,5.8,2.6,5.8,5.8v27.7    C84.8,90.9,82.2,93.5,79,93.5z M65.5,81.9h7.7V65.8h-7.7V81.9z"/></g><g><path d="M78.6,181.7H59.2c-3.2,0-5.8-2.6-5.8-5.8v-66.2c0-3.2,2.6-5.8,5.8-5.8h19.3c3.2,0,5.8,2.6,5.8,5.8v66.2    C84.4,179.1,81.8,181.7,78.6,181.7z M65.1,170.1h7.7v-54.6h-7.7V170.1z"/></g><g><path d="M198.9,256.1h-26.6c-3.2,0-5.8-2.6-5.8-5.8v-17.4c0-3.2,2.6-5.8,5.8-5.8s5.8,2.6,5.8,5.8v11.6h15v-11.6    c0-3.2,2.6-5.8,5.8-5.8s5.8,2.6,5.8,5.8v17.4C204.7,253.5,202.1,256.1,198.9,256.1z"/></g><g><path d="M355.5,256.1H220.8c-3.2,0-5.8-2.6-5.8-5.8v-17.4c0-3.2,2.6-5.8,5.8-5.8s5.8,2.6,5.8,5.8v11.6h123.1v-11.6    c0-3.2,2.6-5.8,5.8-5.8s5.8,2.6,5.8,5.8v17.4C361.3,253.5,358.7,256.1,355.5,256.1z"/></g><g><path d="M511.4,237h-373c-2.3,0-4.4-1.4-5.3-3.5l-41.4-97.1c-0.6-1.4-0.6-3,0-4.5L133,30.1c0.9-2.2,3-3.6,5.4-3.6h373    c2.5,0,4.6,1.5,5.5,3.9l36,101.1c0.5,1.3,0.4,2.7,0,3.9l-36,97.8C516,235.4,513.9,237,511.4,237z M142.2,225.4h365.2l33.8-92    L507.3,38h-365l-39,96L142.2,225.4z"/></g><g><path d="M547.4,139.2c0,0-0.1,0-0.1,0l-34.8-0.7c-3.2-0.1-5.7-2.7-5.7-5.9c0.1-3.2,2.7-5.7,5.8-5.7c0,0,0.1,0,0.1,0l34.8,0.7    c3.2,0.1,5.7,2.7,5.7,5.9C553.1,136.6,550.5,139.2,547.4,139.2z"/></g><g><path d="M537.2,224.4H516c-3.2,0-5.8-2.6-5.8-5.8s2.6-5.8,5.8-5.8h15.4v-51.7c0-3.2,2.6-5.8,5.8-5.8s5.8,2.6,5.8,5.8v57.5    C543,221.8,540.4,224.4,537.2,224.4z"/></g><g><path d="M537.2,110.5c-3.2,0-5.8-2.6-5.8-5.8V50.6h-15.5c-3.2,0-5.8-2.6-5.8-5.8s2.6-5.8,5.8-5.8h21.3c3.2,0,5.8,2.6,5.8,5.8v59.9    C543,107.9,540.4,110.5,537.2,110.5z"/></g><g><g><path d="M430.8,221.7c-0.7,0-1.5-0.1-2.2-0.4l-50.8-20.5c-0.1,0-0.1,0-0.2-0.1l-7.6-3.1c-1.4-0.6-2.6-1.7-3.2-3.1l-24.7-58.1     c-0.8-2-0.5-4.3,0.8-5.9l6.8-8.4c12.9-16.2,34.6-22,53.9-14.4c1.7,0.7,2.9,2,3.4,3.8s0.2,3.6-0.8,5c-2.5,3.5-4.2,7.4-5,11.7     c0,0,0,0,0,0c-0.3,1.8-0.5,3.5-0.5,5.3c0,2.7,0.4,5.4,1.1,8c0,0,0,0,0,0c1.2,4.1,3.2,7.9,6,11.1c0,0,0,0,0,0     c2.9,3.4,6.6,6.1,10.7,7.8c0,0,0,0,0,0c3.6,1.5,7.3,2.2,11.2,2.2c0.4,0,0.8,0,1.2,0c0,0,0,0,0,0c4.5-0.2,8.8-1.4,12.7-3.5     c3.7-2,7-4.9,9.5-8.4c1.6-2.1,4.4-2.9,6.9-2c14.4,5.8,30.7,1.7,40.6-10.3l6.3-9.7c1.2-1.8,3.2-2.8,5.4-2.6c2.1,0.2,4,1.5,4.8,3.5     l0.4,0.9c0.6,1.4,0.6,3,0,4.4l-23.7,58.6c-0.6,1.4-1.7,2.6-3.1,3.2L433,221.2C432.3,221.5,431.5,221.7,430.8,221.7z M409,200.9     l19,7.7c-11.2-8.8-17.8-22.3-17.8-36.7c0-0.9,0-1.9,0.1-2.8c-1.8-1-3.6-2.2-5.3-3.5c-2,4.6-3,9.4-3,14.3     C402.1,187.2,404.4,194.6,409,200.9z M421.9,173.2c0.5,12.9,8,24.6,20,30.4c0.4,0.2,0.8,0.4,1.1,0.7l10.2-4.3     c-11.6-4.7-21.1-14-25.9-26.1C425.5,173.9,423.7,173.6,421.9,173.2z M384.4,190.9l8.4,3.4c-1.5-4.7-2.3-9.6-2.3-14.4     c0-8,2-16,6.2-23.2c-1.1-1.5-2-3.1-2.8-4.7c-7.8,6.7-12.2,16.4-12.2,26.6c0,2.5,0.3,5,0.8,7.6L384.4,190.9z M439.7,172.9     c6,11.4,17.7,18.8,31.1,19c0.5,0,0.9,0.1,1.3,0.2l12.4-5.2l1.9-4.7c-14.4,3-29.5-1-40.7-11.1     C443.7,171.8,441.7,172.4,439.7,172.9z M364.3,158.7l6.1,14.3c1.5-13.1,8.5-25,19.6-32.8c-0.4-2.1-0.5-4.2-0.6-6.3     C377.3,137.1,367.7,146.4,364.3,158.7z M456.2,164.6c10.3,7.6,23.9,9,35.9,3.5l4.5-11.2c-10.9,6.1-24,7.7-36.4,3.9     C458.9,162.1,457.6,163.4,456.2,164.6z M354.2,135l3.8,9c7-11.8,19-20.1,33-22.3c0.5-1.8,1.2-3.5,1.9-5.2     c-12.7-2.4-25.8,2.4-34.1,12.8L354.2,135z"/></g><g><path d="M473.8,162.8c-5.9,0-11.9-1.1-17.7-3.5c-1.7-0.7-2.9-2.1-3.4-3.8c-0.5-1.7-0.2-3.6,0.9-5c2.6-3.6,4.4-7.8,5.2-12.2     c0,0,0,0,0,0c0.3-1.7,0.4-3.4,0.4-5c0-2.6-0.3-5.2-1-7.7c0,0,0,0,0,0c-1.2-4.3-3.3-8.3-6.3-11.6c-2.8-3.2-6.4-5.8-10.3-7.4     c0,0,0,0,0,0c-3.6-1.6-7.5-2.4-11.5-2.4c-0.5,0-1,0-1.5,0c-4.3,0.2-8.4,1.4-12.2,3.4c0,0,0,0,0,0c-3.9,2.1-7.3,5.1-9.9,8.7     c-1.5,2.2-4.4,3-6.8,2c-14.6-5.7-30.9-1.3-40.7,10.9l-6.9,8.4c-1.8,2.2-5,2.8-7.4,1.3c-2.5-1.5-3.5-4.5-2.4-7.2l23.7-58.6     c0.6-1.4,1.7-2.6,3.1-3.2L427,45.5c1.4-0.6,3-0.6,4.4,0l52.2,21.1c0,0,0,0,0.1,0l6.3,2.6c1.4,0.6,2.6,1.7,3.2,3.1l24.3,57.2     c0.8,1.8,0.6,3.8-0.5,5.4l-6.5,10c-0.1,0.2-0.2,0.3-0.4,0.5C501,156.6,487.6,162.8,473.8,162.8z M467,150.5     c12.6,2.5,25.6-2,34-12.2l4.7-7.1l-3.8-8.9c-6.9,11.8-18.8,20.1-32.7,22.4C468.6,146.6,467.8,148.6,467,150.5z M470.2,126.9     c0.3,1.8,0.5,3.7,0.5,5.5c12-3.3,21.5-12.6,24.8-25l-5.5-12.9C488.4,107.5,481.3,119.2,470.2,126.9z M463.2,109.8     c1.2,1.7,2.3,3.5,3.2,5.4c7.9-6.7,12.4-16.5,12.4-26.8c0-2.5-0.3-5-0.8-7.5l-1.4-4.6l-9.9-4c1.6,4.8,2.4,9.7,2.4,14.7     C469.2,94.8,467.2,102.6,463.2,109.8z M368.3,98.1l-5,12.4c10.9-6.2,23.9-7.9,36.4-4.3c1.4-1.6,2.9-3,4.5-4.4     C394,94.2,380.3,92.6,368.3,98.1z M450,97.9c1.6,0.9,3.1,1.9,4.6,3c1.9-4.5,2.9-9.2,2.9-14c0-7.5-2.4-15-7.2-21.4l-16.9-6.8     c10.6,8.9,16.7,21.9,16.7,35.9C450.2,95.7,450.1,96.8,450,97.9z M383.2,83.2c11.5,0,22.8,4.3,31.6,12.3c1.7-0.7,3.5-1.3,5.3-1.7     c-6.1-11.4-17.9-18.7-31.2-18.7c-0.5,0-1.1-0.1-1.6-0.2l-11.6,4.9l-1.7,4.3C377,83.6,380.1,83.2,383.2,83.2z M432.3,92.7     c2.1,0.1,4.2,0.4,6.2,0.8c-0.4-12.9-7.8-24.7-19.8-30.6c-0.5-0.2-0.9-0.5-1.3-0.8l-11.3,4.8C417.9,71.5,427.4,80.7,432.3,92.7z"/></g></g><g><g><path d="M215.3,220.9c-0.7,0-1.5-0.1-2.2-0.4l-58.6-23.7c-1.4-0.6-2.6-1.7-3.2-3.1l-24.7-58.1c0-0.1,0-0.1-0.1-0.2c0,0,0,0,0,0     c0,0,0,0,0,0c-0.1-0.3-0.2-0.6-0.3-0.9c-0.2-1-0.2-2,0.2-3c0-0.1,0.1-0.2,0.1-0.3l23.6-58.5c0.6-1.4,1.7-2.6,3.1-3.2l58.1-24.7     c1.4-0.6,3-0.6,4.4,0l52.1,21.1c0,0,0.1,0,0.1,0l6.3,2.6c1.4,0.6,2.6,1.7,3.2,3.1l24.3,57.1c0,0,0,0.1,0.1,0.2l0.4,0.9     c0.6,1.4,0.6,3,0,4.4l-23.7,58.6c-0.6,1.4-1.7,2.6-3.1,3.2l-58.1,24.7C216.9,220.8,216.1,220.9,215.3,220.9z M193.6,200.1l19,7.7     c-11.2-8.8-17.8-22.3-17.8-36.7c0-0.9,0-1.9,0.1-2.8c-1.8-1-3.6-2.2-5.3-3.5c-2,4.6-3,9.4-3,14.3     C186.6,186.4,189,193.8,193.6,200.1z M206.5,172.5c0.5,12.9,8,24.6,20,30.4c0.4,0.2,0.8,0.4,1.1,0.7l10.2-4.3     c-11.6-4.7-21.1-14-25.9-26.1C210.1,173.1,208.3,172.8,206.5,172.5z M168.9,190.1l8.4,3.4c-1.5-4.7-2.3-9.6-2.3-14.4     c0-8,2-16,6.2-23.2c-1.1-1.5-2-3.1-2.8-4.7c-7.8,6.7-12.2,16.4-12.2,26.6c0,2.5,0.3,5,0.8,7.6L168.9,190.1z M224.2,172.1     c6,11.4,17.7,18.8,31.1,19c0.5,0,0.9,0.1,1.3,0.2L269,186l1.9-4.7c-14.4,3-29.5-1-40.7-11.1C228.3,171,226.3,171.7,224.2,172.1z      M148.8,157.9l6.1,14.3c1.5-13.1,8.5-25,19.6-32.8c-0.4-2.1-0.5-4.2-0.6-6.3C161.8,136.3,152.3,145.6,148.8,157.9z M240.7,163.8     c10.3,7.5,23.9,9,35.9,3.5l4.5-11.2c-10.9,6.1-24,7.7-36.4,3.9C243.5,161.3,242.1,162.6,240.7,163.8z M203.4,159.4     C203.4,159.4,203.4,159.4,203.4,159.4c4,1.7,8.2,2.4,12.5,2.2c0,0,0,0,0,0c4.5-0.2,8.8-1.4,12.7-3.5c0,0,0,0,0,0     c3.7-2,7-4.9,9.5-8.4c0,0,0,0,0,0c2.6-3.6,4.4-7.8,5.2-12.1c0,0,0,0,0,0c0.3-1.7,0.4-3.4,0.4-5c0-2.6-0.3-5.2-1-7.7c0,0,0,0,0,0     c-1.2-4.3-3.3-8.3-6.3-11.6c-2.8-3.2-6.4-5.8-10.3-7.4c0,0,0,0,0,0c-3.6-1.6-7.5-2.4-11.5-2.4c-0.5,0-1,0-1.5,0c0,0,0,0,0,0     c-4.3,0.2-8.4,1.4-12.2,3.4c0,0,0,0,0,0c-3.9,2.1-7.3,5.1-9.9,8.7c0,0,0,0,0,0c-2.5,3.5-4.2,7.4-5,11.7c0,0,0,0,0,0     c-0.3,1.8-0.5,3.5-0.5,5.3c0,2.7,0.4,5.3,1.1,7.9c0,0,0,0,0,0c1.2,4.1,3.2,7.9,6,11.1c0,0,0,0,0,0     C195.6,155.1,199.3,157.7,203.4,159.4z M251.5,149.7c12.6,2.5,25.6-2,34-12.2l4.7-7.1l-3.8-8.9c-6.9,11.8-18.8,20.1-32.7,22.4     C253.2,145.8,252.4,147.8,251.5,149.7z M138.8,134.3l3.8,9c7-11.8,19-20.1,33-22.3c0.5-1.8,1.2-3.5,1.9-5.2     c-12.7-2.4-25.8,2.4-34.1,12.8L138.8,134.3z M254.8,126.1c0.3,1.8,0.5,3.7,0.5,5.5c12-3.3,21.5-12.6,24.8-25l-5.5-12.9     C272.9,106.7,265.9,118.5,254.8,126.1z M247.8,109c1.2,1.7,2.3,3.5,3.2,5.4c7.9-6.7,12.4-16.5,12.4-26.8c0-2.5-0.3-5-0.8-7.5     l-1.4-4.6l-9.9-4c1.6,4.8,2.4,9.7,2.4,14.7C253.8,94,251.8,101.9,247.8,109z M152.9,97.4l-5,12.4c10.9-6.2,23.9-7.9,36.4-4.3     c1.4-1.6,2.9-3,4.5-4.4C178.5,93.4,164.9,91.9,152.9,97.4z M234.6,97.1c1.6,0.9,3.1,1.9,4.6,3c1.9-4.5,2.9-9.2,2.9-14     c0-7.5-2.4-15-7.2-21.4L218,58c10.6,8.9,16.7,21.9,16.7,35.9C234.7,94.9,234.7,96,234.6,97.1z M167.7,82.5     c11.5,0,22.8,4.3,31.6,12.3c1.7-0.7,3.5-1.3,5.3-1.7c-6.1-11.4-17.9-18.7-31.2-18.7c-0.5,0-1.1-0.1-1.6-0.2l-11.6,4.9l-1.7,4.3     C161.6,82.8,164.7,82.5,167.7,82.5z M216.9,91.9c2.1,0.1,4.2,0.4,6.2,0.8c-0.4-12.9-7.8-24.7-19.8-30.6c-0.5-0.2-0.9-0.5-1.3-0.8     l-11.3,4.8C202.5,70.8,212,79.9,216.9,91.9z"/></g></g><g><path d="M284.6,237c-0.7,0-1.5-0.1-2.2-0.4c-3-1.2-4.4-4.6-3.2-7.6l38.9-96.4l-41.7-98.1c-1.3-2.9,0.1-6.4,3.1-7.6    c2.9-1.3,6.4,0.1,7.6,3.1l42.6,100.3c0.6,1.4,0.6,3,0,4.4L290,233.3C289,235.6,286.9,237,284.6,237z"/></g><g><path d="M361.4,104.2c-2.3,0-4.4-1.3-5.3-3.5l-28.1-66.2c-1.3-2.9,0.1-6.4,3.1-7.6c3-1.3,6.4,0.1,7.6,3.1l28.1,66.2    c1.3,2.9-0.1,6.4-3.1,7.6C362.9,104.1,362.1,104.2,361.4,104.2z"/></g><g><path d="M336,237c-0.7,0-1.5-0.1-2.2-0.4c-3-1.2-4.4-4.6-3.2-7.6l25.4-62.9c1.2-3,4.6-4.4,7.6-3.2c3,1.2,4.4,4.6,3.2,7.6    l-25.4,62.9C340.5,235.6,338.3,237,336,237z"/></g><g><path d="M130.8,50.6H79c-3.2,0-5.8-2.6-5.8-5.8S75.8,39,79,39h51.8c3.2,0,5.8,2.6,5.8,5.8S134,50.6,130.8,50.6z"/></g><g><path d="M130.6,224.4H79c-3.2,0-5.8-2.6-5.8-5.8s2.6-5.8,5.8-5.8h51.6c3.2,0,5.8,2.6,5.8,5.8S133.8,224.4,130.6,224.4z"/></g><g><path d="M297.1,138.4c-3.2,0-5.8-2.6-5.8-5.8c0-3.2,2.6-5.8,5.8-5.8l27.3-0.1c0,0,0,0,0,0c3.2,0,5.8,2.6,5.8,5.8    c0,3.2-2.6,5.8-5.8,5.8L297.1,138.4C297.1,138.4,297.1,138.4,297.1,138.4z"/></g><g><path d="M132.1,139.9H97c-3.2,0-5.8-2.6-5.8-5.8s2.6-5.8,5.8-5.8h35.1c3.2,0,5.8,2.6,5.8,5.8S135.3,139.9,132.1,139.9z"/></g></g><text x="0" y="289" fill="#000000" font-size="5px" font-weight="bold" font-family="'Helvetica Neue', Helvetica, Arial-Unicode, Arial, Sans-serif">Created by Misha Petrishchev</text><text x="0" y="294" fill="#000000" font-size="5px" font-weight="bold" font-family="'Helvetica Neue', Helvetica, Arial-Unicode, Arial, Sans-serif">from the Noun Project</text></svg>