<svg xmlns="http://www.w3.org/2000/svg" xmlns:xlink="http://www.w3.org/1999/xlink" version="1.1" x="0px" y="0px" viewBox="0 0 100 125" enable-background="new 0 0 100 100" xml:space="preserve"><g><path d="M95,80.938c-0.828,0-1.5,0.671-1.5,1.5v2.715c0,4.582-3.728,8.309-8.309,8.309c-4.582,0-8.31-3.728-8.31-8.309V34.054   c0-7.109-5.783-12.893-12.893-12.893s-12.894,5.784-12.894,12.893v3.209h-10.75V14.278h3.587c0.09,0.743,0.715,1.32,1.482,1.32   h17.729c0.828,0,1.5-0.671,1.5-1.5v-9.06c0-0.829-0.672-1.5-1.5-1.5H45.414c-0.766,0-1.392,0.577-1.482,1.32h-17.38   c-0.09-0.743-0.716-1.32-1.482-1.32H7.341c-0.828,0-1.5,0.671-1.5,1.5v9.06c0,0.829,0.672,1.5,1.5,1.5H25.07   c0.766,0,1.392-0.577,1.482-1.32h3.586v22.985H5c-0.828,0-1.5,0.671-1.5,1.5v56.199c0,0.829,0.672,1.5,1.5,1.5h60.484   c0.828,0,1.5-0.671,1.5-1.5V38.763c0-0.829-0.672-1.5-1.5-1.5H54.096v-3.209c0-5.455,4.438-9.893,9.894-9.893   s9.893,4.438,9.893,9.893v51.099c0,6.236,5.073,11.309,11.31,11.309c6.235,0,11.309-5.073,11.309-11.309v-2.715   C96.5,81.609,95.828,80.938,95,80.938z M61.644,12.598H46.914v-6.06h14.729V12.598z M8.841,6.538H23.57v6.06H8.841V6.538z    M26.57,7.858h17.344v3.42h-5.068h-7.207H26.57V7.858z M33.139,14.278h4.207v22.985h-4.207V14.278z M63.984,93.462H6.5V40.263   h25.139h7.207h25.139V93.462z"/></g><text x="0" y="115" fill="#000000" font-size="5px" font-weight="bold" font-family="'Helvetica Neue', Helvetica, Arial-Unicode, Arial, Sans-serif">Created by fauzan akbar</text><text x="0" y="120" fill="#000000" font-size="5px" font-weight="bold" font-family="'Helvetica Neue', Helvetica, Arial-Unicode, Arial, Sans-serif">from the Noun Project</text></svg>