<svg xmlns="http://www.w3.org/2000/svg" xmlns:xlink="http://www.w3.org/1999/xlink" version="1.1" x="0px" y="0px" viewBox="0 0 50 62.5" style="enable-background:new 0 0 50 50;" xml:space="preserve"><style type="text/css">
	.st0{fill:none;stroke:#000000;stroke-width:1.2;stroke-linecap:round;stroke-linejoin:round;stroke-miterlimit:10;}
	.st1{fill:none;stroke:#000000;stroke-width:1.1;stroke-linecap:round;stroke-linejoin:round;stroke-miterlimit:10;}
	.st2{fill:none;stroke:#000000;stroke-width:1.4;stroke-linecap:round;stroke-linejoin:round;stroke-miterlimit:10;}
	.st3{stroke:#000000;stroke-width:0.2;stroke-miterlimit:10;}
	.st4{fill:none;}
	.st5{fill:none;stroke:#000000;stroke-width:0.2;stroke-miterlimit:10;}
	.st6{fill:none;stroke:#000000;stroke-linecap:round;stroke-linejoin:round;stroke-miterlimit:10;}
	.st7{fill:none;stroke:#000000;stroke-width:0.95;stroke-miterlimit:10;}
	.st8{fill:none;stroke:#000000;stroke-width:0.9;stroke-linecap:round;stroke-linejoin:round;stroke-miterlimit:10;}
	.st9{fill:none;stroke:#000000;stroke-width:1.3;stroke-linecap:round;stroke-linejoin:round;stroke-miterlimit:10;}
	.st10{fill:none;stroke:#000000;stroke-linecap:round;stroke-miterlimit:10;}
	.st11{fill:none;stroke:#000000;stroke-width:1.1;stroke-linecap:round;stroke-miterlimit:10;}
</style><polyline class="st2" points="7.441772,15.6611404 43.2038269,15.6611404 43.2038269,24.480381 "/><path class="st2" d="M43.2038231,34.4947052v9.9583282H9.5572767c-2.0882726,0-3.7811437-1.6928558-3.7811437-3.7811279V17.2467194"/><line class="st2" x1="5.7761474" y1="17.2467136" x2="5.7761474" y2="13.9981766"/><path class="st1" d="M24.3861256,15.6611404h0.0900269"/><polyline class="st2" points="40.2833672,15.6611404 40.2833672,12.3229504 35.0461464,12.3229504 "/><line class="st2" x1="8.4361477" y1="12.3229504" x2="7.441772" y2="12.3229504"/><path class="st2" d="M7.441772,15.6599998c-0.6899996,0-1.6656246-0.4973049-1.6656246-1.6618233  c0-1.3063164,0.975625-1.6752262,1.6656246-1.6752262"/><g><path class="st3" d="M26.1961231,3.5211868c-1.6199951,0-3.1399536,0.4400024-4.4499512,1.1999512   c-0.3300171,0.1900024-0.6500244,0.4000244-0.9500122,0.6300049c-2.1300049,1.6300049-3.5,4.1900024-3.5,7.0599976   c0,0.2600098,0.0100098,0.5100098,0.039978,0.7600098c0.0700073,0.8699951,0.2700195,1.710022,0.5800171,2.4899902h1.0899658   c-0.3499756-0.7699585-0.5799561-1.6099854-0.6599731-2.4899902c-0.0300293-0.25-0.039978-0.5-0.039978-0.7600098   c0-2.6900024,1.3699951-5.0799561,3.4400024-6.5c0.2999878-0.2099609,0.6199951-0.3999634,0.9499512-0.5599976   c1.0599976-0.5199585,2.25-0.8200073,3.5-0.8200073c4.3400269,0,7.8800068,3.5400391,7.8800068,7.8800049   c0,0.2600098-0.0100098,0.5100098-0.039978,0.7600098c-0.0800171,0.8800049-0.3099976,1.7200317-0.6599731,2.4899902h1.0899658   c0.3099976-0.7799683,0.5100098-1.6199951,0.5800171-2.4899902c0.0299683-0.25,0.039978-0.5,0.039978-0.7600098   C35.0861397,7.5111771,31.0961475,3.5211868,26.1961231,3.5211868z"/><path d="M29.076128,14.4611893c0.1100464,0.1399536,0.1500244,0.289978,0.1300049,0.4699707   c-0.0299683,0.1900024-0.1099854,0.3400269-0.2399902,0.4500122c-0.1500244,0.0999756-0.289978,0.2000122-0.4400024,0.2799683   h-4.1400146c-0.2799683-0.1599731-0.5499878-0.3499756-0.7999878-0.5999756   c-0.5499878-0.5499878-0.9199829-1.1799927-1.0800171-1.8900146c-0.0699463-0.289978-0.0999756-0.5899658-0.0999756-0.8999634   c0-1.1000366,0.3900146-2.0100098,1.1799927-2.7900391c0.2399902-0.2299805,0.5-0.4199829,0.7600098-0.5799561   c0.0999756-0.0500488,0.1900024-0.1000366,0.289978-0.1500244V7.2711868c0-0.2300415,0.1900024-0.4200439,0.4200439-0.4200439   c0.2399902,0,0.4199829,0.1900024,0.4199829,0.4200439V8.43116c0.3099976-0.0700073,0.6199951-0.1199951,0.960022-0.1199951   h0.0299683v-1.039978c0-0.2300415,0.1900024-0.4200439,0.4199829-0.4200439c0.2400513,0,0.4200439,0.1900024,0.4200439,0.4200439   v1.1399536c0.5899658,0.1300049,1.1399536,0.3800049,1.6499634,0.7700195c0.1400146,0.1099854,0.2200317,0.25,0.25,0.4400024   c0.0200195,0.1900024-0.0199585,0.3499756-0.1300049,0.4899902c-0.1099854,0.1400146-0.2600098,0.2200317-0.4400024,0.25   c-0.1699829,0.0200195-0.3200073-0.0200195-0.4699707-0.1499634c-0.5300293-0.3800049-1.1400146-0.5800171-1.8099976-0.5800171   c-0.2000122,0-0.3900146,0.0200195-0.5800171,0.0700073c-0.3300171,0.0799561-0.6400146,0.2299805-0.9299927,0.4500122   c-0.1099854,0.0799561-0.2199707,0.1699829-0.3300171,0.2699585c-0.5299683,0.5300293-0.8099976,1.1500244-0.8099976,1.8699951   c0,0.3099976,0.0499878,0.6000366,0.1600342,0.8800049c0.1300049,0.3500366,0.3499756,0.6799927,0.6499634,0.9700317   c0.1199951,0.1199951,0.25,0.2299805,0.3900146,0.3200073c0.289978,0.2099609,0.5999756,0.3399658,0.9400024,0.4099731   c0.1599731,0.0300293,0.3300171,0.0499878,0.5,0.0499878c0.6799927,0,1.289978-0.1900024,1.8300171-0.5899658   c0.1300049-0.1000366,0.2699585-0.1400146,0.4599609-0.1100464C28.8161182,14.2411575,28.9661427,14.3211746,29.076128,14.4611893z   "/></g><g><g><path d="M21.746172,4.721138c-1.3099976-0.7599487-2.8300171-1.1999512-4.4500122-1.1999512    c-4.9100342,0-8.9000244,3.9899902-8.9000244,8.8899536c0,0.2600098,0.0100098,0.5100098,0.0400391,0.7600098    c0.0699463,0.8699951,0.2699585,1.710022,0.5799561,2.4899902h1.0900269    c-0.3500366-0.7699585-0.5800171-1.6099854-0.6600342-2.4899902c-0.0299683-0.25-0.039978-0.5-0.039978-0.7600098    c0-4.3399658,3.539978-7.8800049,7.8900146-7.8800049c1.25,0,2.4400024,0.3000488,3.5,0.8200073    c0.3300171,0.1600342,0.6499634,0.3500366,0.9500122,0.5599976c0.2999878-0.2099609,0.6199951-0.3999634,0.9499512-0.5599976    C22.3961353,5.1211624,22.076128,4.9111404,21.746172,4.721138z"/></g><g><path d="M21.746172,4.721138c-1.3099976-0.7599487-2.8300171-1.1999512-4.4500122-1.1999512    c-4.9100342,0-8.9000244,3.9899902-8.9000244,8.8899536c0,0.2600098,0.0100098,0.5100098,0.0400391,0.7600098    c0.0699463,0.8699951,0.2699585,1.710022,0.5799561,2.4899902h1.0900269    c-0.3500366-0.7699585-0.5800171-1.6099854-0.6600342-2.4899902c-0.0299683-0.25-0.039978-0.5-0.039978-0.7600098    c0-4.3399658,3.539978-7.8800049,7.8900146-7.8800049c1.25,0,2.4400024,0.3000488,3.5,0.8200073    c0.3300171,0.1600342,0.6499634,0.3500366,0.9500122,0.5599976c0.2999878-0.2099609,0.6199951-0.3999634,0.9499512-0.5599976    C22.3961353,5.1211624,22.076128,4.9111404,21.746172,4.721138z"/></g><g><path class="st5" d="M21.746172,4.721138c-1.3099976-0.7599487-2.8300171-1.1999512-4.4500122-1.1999512    c-4.9100342,0-8.9000244,3.9899902-8.9000244,8.8899536c0,0.2600098,0.0100098,0.5100098,0.0400391,0.7600098    c0.0699463,0.8699951,0.2699585,1.710022,0.5799561,2.4899902h1.0900269    c-0.3500366-0.7699585-0.5800171-1.6099854-0.6600342-2.4899902c-0.0299683-0.25-0.039978-0.5-0.039978-0.7600098    c0-4.3399658,3.539978-7.8800049,7.8900146-7.8800049c1.25,0,2.4400024,0.3000488,3.5,0.8200073    c0.3300171,0.1600342,0.6499634,0.3500366,0.9500122,0.5599976c0.2999878-0.2099609,0.6199951-0.3999634,0.9499512-0.5599976    C22.3961353,5.1211624,22.076128,4.9111404,21.746172,4.721138z"/></g></g><path class="st2" d="M36.7862282,25.4431286h8.1764946v8.2984867h-8.1764946c-2.2915611,0-4.1492386-1.8576775-4.1492386-4.1492386  v-0.0000095C32.6369896,27.300806,34.4946671,25.4431286,36.7862282,25.4431286z"/><line class="st2" x1="37.6344948" y1="27.9687271" x2="37.6344948" y2="31.3798637"/><circle class="st9" cx="11.6618185" cy="22.8152027" r="1.8180386"/><circle class="st1" cx="24.4761524" cy="22.2453976" r="1.2482347"/><circle class="st1" cx="27.962862" cy="39.9000969" r="1.2482347"/><circle class="st9" cx="9.8508835" cy="38.6518593" r="1.8180386"/><circle class="st9" cx="19.3162022" cy="27.8097172" r="1.8180386"/><circle class="st9" cx="21.3472691" cy="36.6888428" r="1.8180386"/><polyline class="st9" points="11.6618185,32.4355545 21.3472691,32.4355545 21.3472691,34.4128647 "/><polyline class="st9" points="15.4143591,32.4355545 15.4143591,27.8097172 17.2961597,27.8097172 "/><polyline class="st9" points="11.7400875,24.690033 11.7400875,29.3158684 6.0826092,29.3158684 "/><line class="st9" x1="11.6618185" y1="32.4355545" x2="5.7761474" y2="32.4355545"/><line class="st9" x1="9.9472618" y1="36.6318169" x2="9.9472618" y2="32.7088089"/><g><line class="st10" x1="17.2335587" y1="19.3398647" x2="19.2633038" y2="21.3696098"/><line class="st10" x1="19.2633038" y1="19.3398647" x2="17.2335587" y2="21.3696098"/></g><g><line class="st10" x1="25.2779751" y1="30.6894245" x2="27.3077202" y2="32.7191696"/><line class="st10" x1="27.3077202" y1="30.6894245" x2="25.2779751" y2="32.7191696"/></g><text x="0" y="65" fill="#000000" font-size="5px" font-weight="bold" font-family="'Helvetica Neue', Helvetica, Arial-Unicode, Arial, Sans-serif">Created by Frühstück</text><text x="0" y="70" fill="#000000" font-size="5px" font-weight="bold" font-family="'Helvetica Neue', Helvetica, Arial-Unicode, Arial, Sans-serif">from the Noun Project</text></svg>