<svg xmlns="http://www.w3.org/2000/svg" xmlns:xlink="http://www.w3.org/1999/xlink" version="1.1" x="0px" y="0px" viewBox="0 0 600 322.5" style="enable-background:new 0 0 600 258;" xml:space="preserve"><g><g><path d="M120.8,243.5c-3.2,0-5.8-2.6-5.8-5.8V26.1h-13.1c-3.2,0-5.8-2.6-5.8-5.8s2.6-5.8,5.8-5.8h18.9c3.2,0,5.8,2.6,5.8,5.8    v217.3C126.6,240.9,124,243.5,120.8,243.5z"/></g><g><path d="M120.8,103.4H103c-3.2,0-5.8-2.6-5.8-5.8V63.2c0-3.2,2.6-5.8,5.8-5.8h17.8c3.2,0,5.8,2.6,5.8,5.8v34.4    C126.6,100.8,124,103.4,120.8,103.4z M108.8,91.8h6.2V69h-6.2V91.8z"/></g><g><path d="M120.2,206.8h-17.8c-3.2,0-5.8-2.6-5.8-5.8v-82.2c0-3.2,2.6-5.8,5.8-5.8h17.8c3.2,0,5.8,2.6,5.8,5.8V201    C126,204.2,123.4,206.8,120.2,206.8z M108.2,195.2h6.2v-70.6h-6.2V195.2z"/></g><g><g><path d="M398.8,204.1c-46.2,0-83.8-37.6-83.8-83.8s37.6-83.8,83.8-83.8s83.8,37.6,83.8,83.8S445,204.1,398.8,204.1z M398.8,48.1     c-39.8,0-72.2,32.4-72.2,72.2c0,39.8,32.4,72.2,72.2,72.2s72.2-32.4,72.2-72.2C470.9,80.5,438.6,48.1,398.8,48.1z"/></g><g><g><path d="M398.8,102.9c-3.2,0-5.8-2.6-5.8-5.8c0-20-16.3-36.4-36.4-36.4c-3.2,0-5.8-2.6-5.8-5.8s2.6-5.8,5.8-5.8      c26.4,0,48,21.5,48,48C404.6,100.3,402,102.9,398.8,102.9z"/></g></g><g><g><path d="M413.7,108.3c-1.3,0-2.6-0.4-3.7-1.4c-2.5-2.1-2.8-5.7-0.7-8.2c12.9-15.4,10.9-38.3-4.5-51.2c-2.5-2.1-2.8-5.7-0.7-8.2      c2.1-2.5,5.7-2.8,8.2-0.7c20.3,17,22.9,47.3,5.9,67.6C417,107.6,415.4,108.3,413.7,108.3z"/></g></g><g><g><path d="M421.6,122.1c-2.8,0-5.2-2-5.7-4.8c-0.6-3.2,1.6-6.2,4.7-6.7c9.6-1.7,17.9-7,23.5-15s7.7-17.6,6-27.2      c-0.6-3.2,1.6-6.2,4.7-6.7c3.2-0.6,6.2,1.6,6.7,4.7c2.2,12.6-0.6,25.3-7.9,35.8c-7.3,10.5-18.3,17.5-31,19.7      C422.3,122,422,122.1,421.6,122.1z"/></g></g><g><g><path d="M439.9,143.4c-8.3,0-16.5-2.2-23.9-6.4c-2.8-1.6-3.7-5.1-2.1-7.9c1.6-2.8,5.1-3.7,7.9-2.1c8.4,4.9,18.2,6.1,27.6,3.6      c9.4-2.5,17.2-8.5,22.1-16.9c1.6-2.8,5.1-3.7,7.9-2.1c2.8,1.6,3.7,5.1,2.1,7.9c-6.4,11.1-16.7,19-29.1,22.3      C448.2,142.8,444,143.4,439.9,143.4z"/></g></g><g><g><path d="M446.3,175.7c-6.9,0-13.8-1.5-20.2-4.5c-11.6-5.4-20.4-15-24.8-27.1c-1.1-3,0.5-6.3,3.5-7.4c3-1.1,6.3,0.5,7.4,3.5      c3.3,9.1,10,16.4,18.8,20.5c8.8,4.1,18.7,4.5,27.8,1.2c3-1.1,6.3,0.5,7.4,3.5s-0.5,6.3-3.5,7.4      C457.4,174.7,451.8,175.7,446.3,175.7z"/></g></g><g><g><path d="M416,202c-0.7,0-1.3-0.1-2-0.4c-24.9-9-37.7-36.6-28.7-61.5c1.1-3,4.4-4.6,7.4-3.5c3,1.1,4.6,4.4,3.5,7.4      c-3.3,9.1-2.9,19,1.2,27.8c4.1,8.8,11.4,15.5,20.5,18.8c3,1.1,4.6,4.4,3.5,7.4C420.6,200.5,418.4,202,416,202z"/></g></g><g><g><path d="M363.2,195.3c-2,0-4-1-5-2.9c-6.4-11.1-8.1-24-4.8-36.4c3.3-12.4,11.3-22.7,22.3-29.1c2.8-1.6,6.3-0.6,7.9,2.1      c1.6,2.8,0.7,6.3-2.1,7.9c-8.4,4.9-14.4,12.7-16.9,22.1s-1.2,19.2,3.6,27.6c1.6,2.8,0.7,6.3-2.1,7.9      C365.2,195,364.2,195.3,363.2,195.3z"/></g></g><g><g><path d="M327.1,156.3c-0.3,0-0.7,0-1-0.1c-3.2-0.6-5.3-3.6-4.7-6.7c2.2-12.6,9.2-23.6,19.7-31s23.2-10.2,35.8-7.9      c3.2,0.6,5.3,3.6,4.7,6.7c-0.6,3.2-3.6,5.3-6.7,4.7c-9.6-1.7-19.2,0.5-27.2,6c-8,5.6-13.3,13.9-15,23.5      C332.3,154.3,329.8,156.3,327.1,156.3z"/></g></g><g><g><path d="M383.8,108.3c-1.7,0-3.3-0.7-4.4-2.1c-12.9-15.4-35.9-17.4-51.2-4.5c-2.5,2.1-6.1,1.7-8.2-0.7c-2.1-2.5-1.7-6.1,0.7-8.2      c20.3-17,50.6-14.3,67.6,5.9c2.1,2.5,1.7,6.1-0.7,8.2C386.5,107.9,385.2,108.3,383.8,108.3z"/></g></g><g><path d="M398.8,149.3c-16,0-29-13-29-29s13-29,29-29s29,13,29,29S414.8,149.3,398.8,149.3z M398.8,102.9     c-9.6,0-17.4,7.8-17.4,17.4s7.8,17.4,17.4,17.4s17.4-7.8,17.4-17.4S408.4,102.9,398.8,102.9z"/></g></g><g><path d="M217.5,243.5h-33.1c-3.2,0-5.8-2.6-5.8-5.8v-16.2c0-3.2,2.6-5.8,5.8-5.8s5.8,2.6,5.8,5.8v10.4h21.5v-10.4    c0-3.2,2.6-5.8,5.8-5.8s5.8,2.6,5.8,5.8v16.2C223.3,240.9,220.7,243.5,217.5,243.5z"/></g><g><path d="M379.6,243.5H235.3c-3.2,0-5.8-2.6-5.8-5.8v-16.2c0-3.2,2.6-5.8,5.8-5.8s5.8,2.6,5.8,5.8v10.4h132.7v-10.4    c0-3.2,2.6-5.8,5.8-5.8s5.8,2.6,5.8,5.8v16.2C385.4,240.9,382.8,243.5,379.6,243.5z"/></g><g><path d="M137,47h-16.2c-3.2,0-5.8-2.6-5.8-5.8s2.6-5.8,5.8-5.8H137c3.2,0,5.8,2.6,5.8,5.8S140.2,47,137,47z"/></g><g><path d="M137,226.1h-13.9c-3.2,0-5.8-2.6-5.8-5.8s2.6-5.8,5.8-5.8H137c3.2,0,5.8,2.6,5.8,5.8S140.2,226.1,137,226.1z"/></g><g><path d="M498.2,226.1H138.8c-3.2,0-5.8-2.6-5.8-5.8V20.3c0-3.2,2.6-5.8,5.8-5.8h317c26.5,0,48.1,21.6,48.1,48.1v157.6    C504,223.5,501.4,226.1,498.2,226.1z M144.6,214.5h347.7V62.6c0-20.1-16.4-36.5-36.5-36.5H144.6V214.5z"/></g><g><path d="M286.6,138.8H176.4c-3.2,0-5.8-2.6-5.8-5.8v-25.5c0-3.2,2.6-5.8,5.8-5.8h110.2c3.2,0,5.8,2.6,5.8,5.8V133    C292.4,136.2,289.8,138.8,286.6,138.8z M182.2,127.2h98.6v-13.9h-98.6V127.2z"/></g><g><path d="M286.6,88H176.4c-3.2,0-5.8-2.6-5.8-5.8s2.6-5.8,5.8-5.8h110.2c3.2,0,5.8,2.6,5.8,5.8S289.8,88,286.6,88z"/></g><g><path d="M286.6,164.2H176.4c-3.2,0-5.8-2.6-5.8-5.8s2.6-5.8,5.8-5.8h110.2c3.2,0,5.8,2.6,5.8,5.8S289.8,164.2,286.6,164.2z"/></g></g><text x="0" y="273" fill="#000000" font-size="5px" font-weight="bold" font-family="'Helvetica Neue', Helvetica, Arial-Unicode, Arial, Sans-serif">Created by Misha Petrishchev</text><text x="0" y="278" fill="#000000" font-size="5px" font-weight="bold" font-family="'Helvetica Neue', Helvetica, Arial-Unicode, Arial, Sans-serif">from the Noun Project</text></svg>