<svg xmlns="http://www.w3.org/2000/svg" data-name="Layer 1" viewBox="0 0 100 125" x="0px" y="0px"><defs><style>.cls-1{fill:#14100d;}</style></defs><title>Noun_Project_50Icon_10px_grid</title><rect class="cls-1" x="12.13" y="52.6" width="2" height="22.33"/><rect class="cls-1" x="17.13" y="47.6" width="2" height="27.33"/><rect class="cls-1" x="22.13" y="42.78" width="2" height="32.15"/><polygon class="cls-1" points="27.13 74.95 29.13 74.91 29.13 44.58 27.13 44.62 27.13 74.95"/><rect class="cls-1" x="32.13" y="48.6" width="2" height="26.33"/><rect class="cls-1" x="37.13" y="53.88" width="2" height="21.06"/><rect class="cls-1" x="42.13" y="57.43" width="2" height="17.5"/><rect class="cls-1" x="47.13" y="59.35" width="2" height="15.58"/><rect class="cls-1" x="52.13" y="57.43" width="2" height="17.5"/><rect class="cls-1" x="57.13" y="52.6" width="2" height="22.33"/><rect class="cls-1" x="62.13" y="47.6" width="2" height="27.33"/><rect class="cls-1" x="67.13" y="44.6" width="2" height="30.33"/><rect class="cls-1" x="72.13" y="40.43" width="2" height="34.5"/><rect class="cls-1" x="77.13" y="37.07" width="2" height="37.86"/><rect class="cls-1" x="82.13" y="33.52" width="2" height="41.41"/><path class="cls-1" d="M89.69,20.3L77.16,23.35l3,3.15L48.08,52.89,24.33,35,24.22,35,24,34.86l-0.17-.08-0.19-.07-0.18,0-0.2,0H22.92l-0.18,0-0.19,0-0.17.07-0.18.08L22,35l-0.16.11-0.15.15-0.09.09L11,47.62a2,2,0,1,0,3,2.62l9.44-10.89L46.91,57h0a2,2,0,0,0,.49.26l0.14,0a2,2,0,0,0,.54.09h0a2,2,0,0,0,.41,0l0.11,0,0.29-.1,0.11,0A2,2,0,0,0,49.38,57l0,0L82.93,29.4l3.13,3.28Z"/><text x="0" y="115" fill="#000000" font-size="5px" font-weight="bold" font-family="'Helvetica Neue', Helvetica, Arial-Unicode, Arial, Sans-serif">Created by Yana Sapegina</text><text x="0" y="120" fill="#000000" font-size="5px" font-weight="bold" font-family="'Helvetica Neue', Helvetica, Arial-Unicode, Arial, Sans-serif">from the Noun Project</text></svg>