<svg xmlns="http://www.w3.org/2000/svg" xmlns:xlink="http://www.w3.org/1999/xlink" version="1.1" x="0px" y="0px" viewBox="0 0 60 68.75" style="enable-background:new 0 0 60 55;" xml:space="preserve"><g><g><path d="M33.046,42.109c0.02-1.675-0.762-3.298-2.324-4.824c-0.394-0.386-1.028-0.378-1.414,0.016    c-0.386,0.396-0.378,1.028,0.017,1.414c1.156,1.13,1.735,2.264,1.722,3.37c-0.013,1.071-0.586,2.142-1.713,3.191    c-1.507,1.438-2.284,2.979-2.309,4.583c-0.026,1.646,0.744,3.275,2.287,4.843C29.508,54.9,29.767,55,30.024,55    c0.253,0,0.507-0.096,0.702-0.287c0.394-0.388,0.398-1.021,0.011-1.415c-1.153-1.17-1.729-2.316-1.712-3.407    c0.017-1.048,0.585-2.113,1.681-3.159C32.239,45.303,33.027,43.748,33.046,42.109z"/><path d="M44.034,42.092c0.02-1.671-0.758-3.288-2.312-4.807c-0.394-0.386-1.028-0.378-1.414,0.016    c-0.386,0.396-0.378,1.028,0.017,1.414c1.148,1.122,1.723,2.25,1.71,3.353c-0.013,1.075-0.59,2.152-1.725,3.209    c-1.507,1.438-2.284,2.979-2.309,4.583c-0.026,1.646,0.744,3.275,2.287,4.843C40.484,54.901,40.742,55,41,55    c0.253,0,0.507-0.096,0.702-0.287c0.394-0.388,0.398-1.021,0.011-1.415c-1.153-1.17-1.729-2.316-1.712-3.407    c0.017-1.048,0.585-2.113,1.681-3.159C43.223,45.296,44.014,43.734,44.034,42.092z"/><path d="M22.034,42.092c0.02-1.671-0.758-3.288-2.312-4.807c-0.394-0.386-1.028-0.378-1.414,0.016    c-0.386,0.396-0.378,1.028,0.017,1.414c1.148,1.122,1.723,2.25,1.71,3.353c-0.013,1.075-0.59,2.152-1.725,3.209    c-1.507,1.438-2.284,2.979-2.309,4.583c-0.026,1.646,0.744,3.275,2.287,4.843C18.484,54.901,18.742,55,19,55    c0.253,0,0.507-0.096,0.702-0.287c0.394-0.388,0.398-1.021,0.011-1.415c-1.153-1.17-1.729-2.316-1.712-3.407    c0.017-1.048,0.585-2.113,1.681-3.159C21.223,45.296,22.014,43.734,22.034,42.092z"/><rect x="8" y="6" width="6" height="2"/><path d="M55,0H5C2.243,0,0,2.242,0,5v7h60V5C60,2.242,57.757,0,55,0z M16,9c0,0.553-0.448,1-1,1H7c-0.552,0-1-0.447-1-1V5    c0-0.553,0.448-1,1-1h8c0.552,0,1,0.447,1,1V9z M37,8h-1v1c0,0.553-0.448,1-1,1s-1-0.447-1-1V8h-2v1c0,0.553-0.448,1-1,1    s-1-0.447-1-1V8h-2v1c0,0.553-0.448,1-1,1s-1-0.447-1-1V8h-2v1c0,0.553-0.448,1-1,1s-1-0.447-1-1V8h-1c-0.552,0-1-0.447-1-1    s0.448-1,1-1h1V5c0-0.553,0.448-1,1-1s1,0.447,1,1v1h2V5c0-0.553,0.448-1,1-1s1,0.447,1,1v1h2V5c0-0.553,0.448-1,1-1s1,0.447,1,1    v1h2V5c0-0.553,0.448-1,1-1s1,0.447,1,1v1h1c0.552,0,1,0.447,1,1S37.552,8,37,8z M44,8h-1c-0.552,0-1-0.447-1-1s0.448-1,1-1h1    c0.552,0,1,0.447,1,1S44.552,8,44,8z M49,8h-1c-0.552,0-1-0.447-1-1s0.448-1,1-1h1c0.552,0,1,0.447,1,1S49.552,8,49,8z M54,8h-1    c-0.552,0-1-0.447-1-1s0.448-1,1-1h1c0.552,0,1,0.447,1,1S54.552,8,54,8z"/><path d="M0,27c0,2.757,2.243,5,5,5h1.845c0.702,1.209,1.998,2,3.443,2h39.424c1.445,0,2.742-0.791,3.444-2H55c2.757,0,5-2.243,5-5    V14H0V27z M52.698,24.362c0.203,0.259,0.309,0.607,0.303,0.95c-0.002,0.115-0.016,0.229-0.043,0.339L52.591,27H7.408l-0.36-1.325    c-0.028-0.116-0.044-0.234-0.046-0.352c-0.008-0.353,0.097-0.7,0.3-0.96c0.027-0.034,0.061-0.074,0.103-0.114    c0.125-0.121,0.316-0.249,0.568-0.249h44.055C52.363,24,52.592,24.228,52.698,24.362z M49.712,32H10.289    c-0.897,0-1.688-0.604-1.922-1.47L7.952,29h44.095l-0.423,1.553C51.381,31.405,50.6,32,49.712,32z"/></g></g><text x="0" y="70" fill="#000000" font-size="5px" font-weight="bold" font-family="'Helvetica Neue', Helvetica, Arial-Unicode, Arial, Sans-serif">Created by Prettycons</text><text x="0" y="75" fill="#000000" font-size="5px" font-weight="bold" font-family="'Helvetica Neue', Helvetica, Arial-Unicode, Arial, Sans-serif">from the Noun Project</text></svg>