<svg xmlns="http://www.w3.org/2000/svg" data-name="Warstwa 1" viewBox="0 0 100 125" x="0px" y="0px"><title>gpu</title><path d="M18,18V8H6v4h8V24H6V51h8v5H6V70h8V84h4V76H43v7l3.73,3H76.27L80,83V76h4.83L94,66.83V18ZM14,66H10V60h4Zm0-19H10V28h4ZM76,81.05l-1.16,1H48.16l-1.16-1V76H76ZM90,65.17,83.17,72H18V22H90Z"/><rect x="82" y="26" width="4" height="4"/><rect x="22" y="26" width="4" height="4"/><rect x="22" y="64" width="4" height="4"/><rect x="68" y="34" width="18" height="4"/><rect x="68" y="42" width="18" height="4"/><rect x="68" y="50" width="18" height="4"/><rect x="68" y="58" width="18" height="4"/><path d="M44,66.88A19.88,19.88,0,1,0,24.12,47,19.9,19.9,0,0,0,44,66.88Zm-2-4.14a15.86,15.86,0,0,1-10.39-5.82l6.06-4A8.74,8.74,0,0,0,42,55.47Zm4,0V55.46A8.65,8.65,0,0,0,50.33,53l6.06,4A15.86,15.86,0,0,1,46,62.74ZM58.06,39.65a15.72,15.72,0,0,1,.41,13.85l-6.13-4A8.87,8.87,0,0,0,52.71,47a8.54,8.54,0,0,0-.7-3.4ZM46,31.26a15.86,15.86,0,0,1,9.77,5.11l-6.14,4A8.73,8.73,0,0,0,46,38.54ZM48.71,47A4.71,4.71,0,1,1,44,42.29,4.72,4.72,0,0,1,48.71,47ZM42,31.26v7.27a8.87,8.87,0,0,0-3.63,1.84l-6.14-4A15.86,15.86,0,0,1,42,31.26ZM36,43.6a8.54,8.54,0,0,0-.7,3.4,8.87,8.87,0,0,0,.37,2.49l-6.14,4a15.81,15.81,0,0,1,.41-13.85Z"/><text x="0" y="115" fill="#000000" font-size="5px" font-weight="bold" font-family="'Helvetica Neue', Helvetica, Arial-Unicode, Arial, Sans-serif">Created by Maciej Świerczek</text><text x="0" y="120" fill="#000000" font-size="5px" font-weight="bold" font-family="'Helvetica Neue', Helvetica, Arial-Unicode, Arial, Sans-serif">from the Noun Project</text></svg>