<svg xmlns="http://www.w3.org/2000/svg" xmlns:xlink="http://www.w3.org/1999/xlink" version="1.1" x="0px" y="0px" viewBox="0 0 60 75" style="enable-background:new 0 0 60 60;" xml:space="preserve"><path d="M48,39H38v-3h-8v8h8v-3h12V18H29v2h19V39z M36,42h-4v-4h4V42z"/><path d="M27,18h-6v6h6V18z M25,22h-2v-2h2V22z"/><path d="M28,38H18v6h10V38z M26,42h-6v-2h6V42z"/><path d="M14,11v3v34v6h2v-6h38V14H16v-3c0-2.7568359-2.2431641-5-5-5H6v2h5C12.6542969,8,14,9.3457031,14,11z M52,16v30H16V16H52z"/><path d="M38,24v8h8v-8H38z M44,30h-4v-4h4V30z"/><rect x="18" y="29" width="18" height="2"/><text x="0" y="75" fill="#000000" font-size="5px" font-weight="bold" font-family="'Helvetica Neue', Helvetica, Arial-Unicode, Arial, Sans-serif">Created by Vectorstall</text><text x="0" y="80" fill="#000000" font-size="5px" font-weight="bold" font-family="'Helvetica Neue', Helvetica, Arial-Unicode, Arial, Sans-serif">from the Noun Project</text></svg>