<svg xmlns="http://www.w3.org/2000/svg" viewBox="0 0 512 640" x="0px" y="0px"><g><path d="M466.43,244H383.84a24,24,0,0,0-24,24v3.766L347.168,379.474,329.5,272.806A43.862,43.862,0,0,0,286.08,236H192.16v-8.34a24.035,24.035,0,0,0,20-23.66V170.3a24.022,24.022,0,0,0,10.017-6.781,24.648,24.648,0,0,0,5.986-16.361V136a4,4,0,0,0-4-4h-58a22,22,0,0,0-22,22v37.97a16.078,16.078,0,0,0,8,13.877V236H64.832A43.754,43.754,0,0,0,21,276.191l-13.206,152A44,44,0,0,0,51.626,476H64.16v16h216V431a70.022,70.022,0,0,0,134.879-16.344L431.371,284H453.25a26.62,26.62,0,0,0,26.59-26.59A13.421,13.421,0,0,0,466.43,244ZM160.19,183.94a8,8,0,0,1,6.117,2.844,4,4,0,0,0,2.938,1.414,3.948,3.948,0,0,0,3.015-1.243,28.506,28.506,0,0,0,7.595-15.692l23.9.4c.135,0,.269,0,.4,0V204a16.019,16.019,0,0,1-16,16,27.832,27.832,0,0,1-10.636-2.09,4,4,0,0,0-3.042,7.4,35.681,35.681,0,0,0,9.681,2.464V248a12,12,0,0,1-24,0V203.31a4,4,0,0,0-2.658-3.769,8.032,8.032,0,0,1,2.688-15.6Zm90.637,236.589-5.866,44A4.013,4.013,0,0,1,241,468H51.626a36,36,0,0,1-35.864-39.115l6.953-80.033,57.371,5.2L76.01,411.718A4,4,0,0,0,80,416H192.157a4,4,0,0,0,3.869-2.984l4.47-17.032,2.935,0a6,6,0,0,1,5.84,7.353l-1.8,7.758a4,4,0,0,0,3.9,4.9h35.491a4,4,0,0,1,3.965,4.529ZM453.25,276H427.84a4,4,0,0,0-3.969,3.5L407.1,413.663a62.03,62.03,0,0,1-123,.78l-3.943-28.581V354.5l53.245-9.157,10.489,63.309a4,4,0,0,0,7.919-.185l16-136a4.067,4.067,0,0,0,.027-.468v-4a16.019,16.019,0,0,1,16-16h82.59a5.424,5.424,0,0,1,5.41,5.41A18.612,18.612,0,0,1,453.25,276Z"/><path d="M311.018,228a85.354,85.354,0,0,0,19.568-2.277,102.209,102.209,0,0,0,69.063-55.388,38.4,38.4,0,0,0,26.992-35.914l4.449-3.83,16.61-13.74a4,4,0,0,0-2.393-7.08l-27.983-1.091a38.3,38.3,0,0,0-67.3,23.668,149.187,149.187,0,0,1-84.037-27.9l-3.025-2.16a4,4,0,0,0-6.324,3.255v6.172a96.184,96.184,0,0,0,4.8,30.157l-12.283-2.731a4,4,0,0,0-4.868,3.9,52.955,52.955,0,0,0,16.9,38.74H242.12a4,4,0,0,0-3.391,6.12A85.245,85.245,0,0,0,311.018,228ZM331.8,175.226a4,4,0,0,1-2.546,5.051,188.755,188.755,0,0,1-56.7,9.5H272.5a4,4,0,0,1-.052-8,180.766,180.766,0,0,0,54.3-9.093A4,4,0,0,1,331.8,175.226ZM264.536,146.7a4,4,0,0,1,4.63-3.251,140.125,140.125,0,0,0,34.538,1.713,4,4,0,0,1,.592,7.979q-5.474.405-10.961.406a148.27,148.27,0,0,1-25.548-2.217A4,4,0,0,1,264.536,146.7Z"/><path d="M456,108a4,4,0,0,1-4-4V84H402a14.015,14.015,0,0,1-14-14V26a14.015,14.015,0,0,1,14-14h84a14.015,14.015,0,0,1,14,14V70a14.015,14.015,0,0,1-14,14h-4.343l-22.829,22.828A4,4,0,0,1,456,108ZM402,20a6.006,6.006,0,0,0-6,6V70a6.006,6.006,0,0,0,6,6h54a4,4,0,0,1,4,4V94.343l17.172-17.171A4,4,0,0,1,480,76h6a6.006,6.006,0,0,0,6-6V26a6.006,6.006,0,0,0-6-6Z"/><path d="M448,36H408a4,4,0,0,1,0-8h40a4,4,0,0,1,0,8Z"/><path d="M480,36H464a4,4,0,0,1,0-8h16a4,4,0,0,1,0,8Z"/><path d="M424,52H408a4,4,0,0,1,0-8h16a4,4,0,0,1,0,8Z"/><path d="M480,52H440a4,4,0,0,1,0-8h40a4,4,0,0,1,0,8Z"/><path d="M456,68H408a4,4,0,0,1,0-8h48a4,4,0,0,1,0,8Z"/></g><text x="0" y="527" fill="#000000" font-size="5px" font-weight="bold" font-family="'Helvetica Neue', Helvetica, Arial-Unicode, Arial, Sans-serif">Created by Chattapat</text><text x="0" y="532" fill="#000000" font-size="5px" font-weight="bold" font-family="'Helvetica Neue', Helvetica, Arial-Unicode, Arial, Sans-serif">from the Noun Project</text></svg>